<svg width="57" height="51" viewBox="0 0 57 51" fill="none" xmlns="http://www.w3.org/2000/svg">
<path d="M49.8634 50.4707H6.67236V50.9997H49.8634V50.4707Z" fill="#E3A82B"/>
<path d="M7.7798 31.5898C7.7798 30.7049 7.71804 30.4709 7.12506 30.4224L6.71327 30.3947C6.64601 30.3407 6.66386 30.1011 6.72563 30.0956C7.43527 30.0319 8.33023 30 9.55324 30C10.3768 30 11.1716 30.0595 11.7632 30.3351C12.3287 30.5858 12.7624 31.0636 12.7624 31.828C12.7624 32.6894 12.2134 33.1312 11.4214 33.4663C11.4214 33.5854 11.5257 33.6214 11.6712 33.6449C12.3809 33.7654 13.4323 34.3623 13.4323 35.6419C13.4323 37.0268 12.3026 37.9615 9.93483 37.9615C9.55324 37.9615 8.90948 37.9255 8.35631 37.9255C7.77843 37.9255 7.33096 37.9491 6.84642 37.9615C6.80478 37.9246 6.77883 37.873 6.77397 37.8173C6.76911 37.7615 6.78572 37.7061 6.82034 37.6624L7.0578 37.6264C7.75372 37.5184 7.78118 37.3868 7.78118 36.1321L7.7798 31.5898ZM8.85732 33.1796C8.85732 33.5148 8.87104 33.5383 9.54363 33.5148C10.8861 33.4663 11.6094 33.1076 11.6094 31.9914C11.6094 30.8198 10.6486 30.3767 9.64932 30.3767C9.44496 30.3659 9.24027 30.3903 9.04399 30.4487C8.90673 30.4847 8.86006 30.5442 8.86006 30.7603L8.85732 33.1796ZM8.85732 35.9493C8.85732 36.38 8.8834 36.9894 9.13184 37.2525C9.38029 37.5156 9.77423 37.5946 10.1723 37.5946C11.3431 37.5946 12.2381 37.1168 12.2381 35.9216C12.2381 34.9772 11.711 33.8776 9.6205 33.8776C8.91085 33.8776 8.85732 33.9482 8.85732 34.1878V35.9493Z" fill="white"/>
<path d="M22.5754 32.7665C22.5754 31.6835 22.552 31.5104 21.889 31.4592L21.6145 31.4384C21.5473 31.3982 21.5692 31.2141 21.6365 31.1836C22.1979 31.203 22.5808 31.2141 23.0516 31.2141C23.5019 31.2141 23.8835 31.203 24.4449 31.1836C24.5121 31.2141 24.5354 31.3982 24.4682 31.4384L24.1937 31.4592C23.5307 31.5104 23.5074 31.6835 23.5074 32.7665V36.4004C23.5074 37.4833 23.5293 37.626 24.1937 37.698L24.4682 37.7284C24.5354 37.7686 24.5121 37.9528 24.4449 37.9832C23.8835 37.9625 23.5019 37.9528 23.0516 37.9528C22.5808 37.9528 22.1979 37.9625 21.6365 37.9832C21.6008 37.9519 21.5786 37.9078 21.5745 37.8603C21.5704 37.8128 21.5848 37.7655 21.6145 37.7284L21.889 37.698C22.5506 37.626 22.5754 37.4833 22.5754 36.4004V32.7665Z" fill="white"/>
<path d="M28.807 36.4213C28.807 37.4932 28.8276 37.6469 29.4384 37.6982L29.7747 37.7286C29.8379 37.7688 29.8173 37.953 29.7541 37.9834C29.1543 37.9627 28.7933 37.953 28.3815 37.953C27.9697 37.953 27.5923 37.9627 26.9183 37.9834C26.9006 37.9673 26.8865 37.9477 26.8769 37.9257C26.8672 37.9038 26.8622 37.88 26.8622 37.856C26.8622 37.832 26.8672 37.8083 26.8769 37.7863C26.8865 37.7644 26.9006 37.7447 26.9183 37.7286L27.2971 37.6982C27.897 37.6469 27.9491 37.4932 27.9491 36.4213V31.8513C27.9491 31.5355 27.9491 31.5259 27.6334 31.5259H27.0556C26.6026 31.5259 26.0233 31.5452 25.7598 31.7807C25.5504 31.9753 25.3883 32.216 25.2862 32.4842C25.2402 32.5101 25.1861 32.5172 25.135 32.5041C25.084 32.4909 25.0398 32.4585 25.0117 32.4135C25.1834 31.9169 25.317 31.4076 25.4111 30.8902C25.4756 30.8647 25.5471 30.8647 25.6116 30.8902C25.6747 31.217 26.0233 31.2073 26.5065 31.2073H30.7617C31.3299 31.2073 31.4246 31.1866 31.5852 30.9221C31.6388 30.9013 31.7541 30.911 31.7747 30.9525C31.655 31.4603 31.6019 31.9818 31.6168 32.5036C31.5756 32.5853 31.3958 32.5853 31.3423 32.5243C31.3107 32.2695 31.2366 31.8915 31.0787 31.7793C30.8371 31.6048 30.4377 31.5245 29.8585 31.5245H29.1104C28.7947 31.5245 28.8057 31.5342 28.8057 31.8707L28.807 36.4213Z" fill="white"/>
<path d="M33.3185 32.7665C33.3185 31.6835 33.2952 31.5104 32.6322 31.4592L32.3577 31.4384C32.2904 31.3982 32.3124 31.2141 32.3796 31.1836C32.941 31.203 33.324 31.2141 33.7948 31.2141C34.245 31.2141 34.6266 31.203 35.188 31.1836C35.2553 31.2141 35.2786 31.3982 35.2114 31.4384L34.9368 31.4592C34.2739 31.5104 34.2505 31.6835 34.2505 32.7665V36.4004C34.2505 37.4833 34.2725 37.626 34.9368 37.698L35.2114 37.7284C35.2786 37.7686 35.2553 37.9528 35.188 37.9832C34.6266 37.9625 34.245 37.9528 33.7948 37.9528C33.324 37.9528 32.941 37.9625 32.3796 37.9832C32.344 37.9519 32.3218 37.9078 32.3177 37.8603C32.3136 37.8128 32.3279 37.7655 32.3577 37.7284L32.6322 37.698C33.2952 37.626 33.3185 37.4833 33.3185 36.4004V32.7665Z" fill="white"/>
<path d="M38.3522 38.0891C37.711 38.1064 37.0743 37.9771 36.4896 37.7111C36.3523 37.4867 36.1903 36.7611 36.167 36.2819C36.226 36.2099 36.4058 36.1891 36.4539 36.2514C36.6323 36.7721 37.1223 37.7748 38.5128 37.7748C39.5162 37.7748 40.0062 37.2139 40.0062 36.6004C40.0062 36.1517 39.8978 35.6518 39.0262 35.1712L37.8924 34.5384C37.2953 34.2018 36.6021 33.6188 36.6021 32.7824C36.6021 31.813 37.4861 31.0264 39.0385 31.0264C39.4124 31.0341 39.7845 31.0805 40.149 31.1649C40.2835 31.2013 40.4216 31.2222 40.5608 31.2272C40.7009 31.6276 40.7737 32.0489 40.7763 32.4735C40.7349 32.5072 40.6847 32.5279 40.6318 32.5333C40.5789 32.5388 40.5257 32.5286 40.4784 32.504C40.3219 32.0138 40.0007 31.3504 38.8532 31.3504C37.6837 31.3504 37.4326 32.0138 37.4326 32.4846C37.4326 33.076 38.0063 33.5053 38.4469 33.7393L39.4078 34.2503C40.1613 34.6492 40.9012 35.2405 40.9012 36.2113C40.8957 37.3178 39.9047 38.0891 38.3522 38.0891Z" fill="white"/>
<path d="M44.3646 34.6555C43.8416 34.6555 43.8155 34.6749 43.8155 34.981V36.4212C43.8155 37.4931 43.8704 37.6371 44.4799 37.698L44.7956 37.7285C44.8615 37.7687 44.8395 37.9529 44.7736 37.9833C44.1861 37.9625 43.8128 37.9529 43.3914 37.9529C42.9233 37.9529 42.5527 37.9736 42.1272 37.9833C42.0926 37.9513 42.0713 37.9072 42.0675 37.86C42.0637 37.8128 42.0776 37.7658 42.1066 37.7285L42.2905 37.698C42.9014 37.5956 42.9233 37.4931 42.9233 36.4212V32.7472C42.9233 31.6753 42.8464 31.5008 42.2809 31.4606L41.9968 31.4399C41.9323 31.3997 41.9542 31.2155 42.0187 31.1851C42.5527 31.1948 42.9233 31.2155 43.3914 31.2155C43.8155 31.2155 44.1861 31.2044 44.6542 31.1851C44.7201 31.2155 44.742 31.3997 44.6762 31.4399L44.4689 31.4606C43.8375 31.5216 43.8155 31.6753 43.8155 32.7472V33.9215C43.8155 34.2373 43.8375 34.2484 44.3646 34.2484H47.4791C48.002 34.2484 48.0281 34.2373 48.0281 33.9215V32.7472C48.0281 31.6753 48.0062 31.5216 47.3638 31.4606L47.1565 31.4399C47.0906 31.3997 47.1126 31.2155 47.1785 31.1851C47.6795 31.2044 48.0501 31.2155 48.4962 31.2155C48.9203 31.2155 49.2909 31.2044 49.781 31.1851C49.8469 31.2155 49.8674 31.3997 49.8029 31.4399L49.5737 31.4606C48.9423 31.5216 48.9203 31.6753 48.9203 32.7472V36.4226C48.9203 37.4945 48.9423 37.6274 49.5737 37.6994L49.8359 37.7299C49.9004 37.7701 49.8784 37.9542 49.8139 37.9847C49.2909 37.9639 48.9203 37.9542 48.4962 37.9542C48.0501 37.9542 47.6575 37.9639 47.1785 37.9847C47.1434 37.953 47.1216 37.909 47.1175 37.8617C47.1135 37.8144 47.1274 37.7672 47.1565 37.7299L47.3638 37.6994C48.0281 37.5969 48.0281 37.4945 48.0281 36.4226V34.9823C48.0281 34.6763 48.0062 34.6569 47.4791 34.6569L44.3646 34.6555Z" fill="white"/>
<path d="M1.5465 40.2257C2.44145 39.5235 3.5821 39.1787 4.85727 39.1787C5.59003 39.1924 6.31874 39.2919 7.02876 39.4751C7.13897 39.5135 7.25543 39.5304 7.37192 39.5249C7.38427 39.8088 7.44604 40.5843 7.5435 41.3363C7.5002 41.3793 7.44319 41.4054 7.38262 41.4099C7.32205 41.4145 7.26184 41.3972 7.2127 41.3612C7.02876 40.5303 6.47697 39.5609 4.69942 39.5609C2.82304 39.5609 1.22942 40.7574 1.22942 43.3097C1.22942 45.898 2.8601 47.3258 4.871 47.3258C6.45226 47.3258 7.15093 46.2899 7.43369 45.5629C7.48435 45.5334 7.54346 45.5221 7.60133 45.5309C7.65919 45.5397 7.71237 45.5681 7.75214 45.6114C7.66703 46.2526 7.34721 47.0669 7.16328 47.3009C7.0171 47.3287 6.87375 47.37 6.73502 47.4241C6.10463 47.6066 5.45266 47.7021 4.79687 47.708C3.69877 47.708 2.63911 47.4851 1.74416 46.8771C1.19544 46.5062 0.74813 46.0018 0.443473 45.4106C0.138816 44.8193 -0.0133795 44.1602 0.000922511 43.4939C-0.00746959 42.866 0.127585 42.2446 0.395615 41.6778C0.663645 41.111 1.05745 40.6141 1.5465 40.2257V40.2257Z" fill="white"/>
<path d="M8.25342 44.2159C8.25342 42.1732 9.84704 40.6152 12.0364 40.6152C14.4906 40.6152 15.7233 42.32 15.7233 44.1175C15.7233 46.1796 14.0871 47.6808 12.0364 47.6808C9.67683 47.6766 8.25342 46.0536 8.25342 44.2159ZM14.6608 44.4291C14.6608 42.7451 13.8853 40.9268 11.8552 40.9268C10.7502 40.9268 9.31583 41.6525 9.31583 43.889C9.31583 45.3999 10.0804 47.3609 12.1736 47.3609C13.4488 47.3609 14.6608 46.4413 14.6608 44.4291Z" fill="white"/>
<path d="M27.7117 43.3375C27.7117 42.7032 27.6897 41.5289 27.5072 41.2228C27.4317 41.1009 27.2326 41.0289 26.9718 41.0082L26.6973 40.9888C26.6688 40.953 26.6552 40.9075 26.6593 40.8617C26.6634 40.816 26.6849 40.7737 26.7193 40.7437C27.1311 40.763 27.5236 40.7741 27.9423 40.7741C28.3925 40.7741 28.6821 40.763 29.0678 40.7437C29.0858 40.7579 29.1007 40.7757 29.1117 40.7959C29.1226 40.8162 29.1293 40.8385 29.1313 40.8614C29.1334 40.8844 29.1308 40.9075 29.1236 40.9294C29.1165 40.9513 29.105 40.9715 29.0898 40.9888L28.8318 41.0082C28.5572 41.0289 28.3596 41.1217 28.2964 41.2533C28.1454 41.5912 28.1454 42.7655 28.1454 43.3375V44.4911C28.1454 45.3788 27.9958 46.3191 27.3946 46.9312C26.9334 47.4103 26.14 47.6762 25.3453 47.6762C24.6054 47.6762 23.8656 47.5378 23.3399 47.1154C22.7716 46.6653 22.5026 45.9202 22.5026 44.7057V42.2947C22.5026 41.2339 22.482 41.0594 21.8602 41.0082L21.5857 40.9888C21.5211 40.9472 21.5431 40.7741 21.6076 40.7437C22.1443 40.763 22.5081 40.7741 22.9377 40.7741C23.3673 40.7741 23.7311 40.763 24.2568 40.7437C24.3213 40.7741 24.3433 40.9472 24.2787 40.9888L24.0207 41.0082C23.3989 41.0594 23.3769 41.2339 23.3769 42.2947V44.5008C23.3769 46.1446 23.9136 47.2275 25.5553 47.2275C27.1105 47.2275 27.7007 46.0629 27.7007 44.5118L27.7117 43.3375Z" fill="white"/>
<path d="M40.1804 42.0618C40.1804 41.2974 40.1324 41.1021 39.5984 41.0606L39.2196 41.0232C39.1757 40.9844 39.1537 40.7781 39.2306 40.7725C39.8716 40.7241 40.6773 40.6895 41.7809 40.6895C42.5276 40.6895 43.2386 40.7407 43.7726 40.9775C44.2818 41.1949 44.673 41.6076 44.673 42.2682C44.673 43.0105 44.1748 43.3913 43.4637 43.6807C43.4637 43.7832 43.5585 43.8192 43.6889 43.8345C44.3299 43.9383 45.2784 44.4535 45.2784 45.5572C45.2784 46.7537 44.2585 47.5583 42.1213 47.5583C41.7782 47.5583 41.1962 47.5265 40.6993 47.5265C40.1777 47.5265 39.7741 47.5473 39.3349 47.5583C39.3163 47.5432 39.3008 47.5244 39.2896 47.5032C39.2783 47.4819 39.2713 47.4586 39.2691 47.4345C39.267 47.4105 39.2696 47.3863 39.2769 47.3633C39.2842 47.3403 39.296 47.319 39.3116 47.3008L39.5243 47.2689C40.153 47.1761 40.1777 47.0626 40.1777 45.9796L40.1804 42.0618ZM41.1522 43.4329C41.1522 43.7223 41.1646 43.7417 41.7686 43.7223C42.9778 43.6807 43.6298 43.3705 43.6298 42.4011C43.6298 41.3902 42.7651 41.0094 41.8633 41.0094C41.6781 40.9991 41.4925 41.0201 41.3142 41.0717C41.1948 41.1021 41.1481 41.1534 41.1481 41.3389L41.1522 43.4329ZM41.1522 45.8259C41.1522 46.197 41.1756 46.7219 41.4007 46.949C41.6258 47.1761 41.9827 47.2384 42.3382 47.2384C43.3937 47.2384 44.1995 46.823 44.1995 45.794C44.1995 44.9797 43.7245 44.0311 41.8399 44.0311C41.1989 44.0311 41.1536 44.092 41.1536 44.2998L41.1522 45.8259Z" fill="white"/>
<path d="M20.8582 37.7331L20.5837 37.7081C20.5274 37.7081 20.4766 37.6957 20.4286 37.6874C20.0168 37.614 19.8535 37.2442 19.6599 36.9021L18.6881 35.1946C18.5206 34.9176 18.3408 34.5285 17.9565 34.4731C18.9516 34.3526 19.8521 33.7724 19.8521 32.778C19.8521 31.6286 18.7238 31.1162 17.5845 31.1162C16.8982 31.1162 16.2778 31.1342 15.5819 31.1342C15.1989 31.1342 14.7418 31.1162 14.3588 31.1162C14.1447 31.1162 14.1433 31.1591 14.1433 31.2796C14.1433 31.4569 14.2175 31.4084 14.4426 31.4181C15.2538 31.4638 15.2222 31.6161 15.2222 32.3169V36.7914C15.2222 37.4312 15.2771 37.6223 14.61 37.6832L14.4508 37.6998L14.1667 37.7331C14.1369 37.7701 14.1226 37.8174 14.1267 37.8649C14.1308 37.9125 14.153 37.9565 14.1886 37.9879L14.6004 37.9726C14.9697 37.9616 15.3375 37.9325 15.7068 37.9325C16.076 37.9325 16.4329 37.9616 16.798 37.9726L17.2098 37.9865C17.2458 37.9553 17.2682 37.9112 17.2723 37.8636C17.2764 37.816 17.2618 37.7686 17.2317 37.7317L16.9476 37.7054L16.7898 37.6901C16.1172 37.643 16.1584 37.4519 16.1584 36.7955V35.1018C16.1584 35.0035 16.146 34.7418 16.2188 34.6642C16.2915 34.5867 16.3862 34.6102 16.4823 34.6102C17.3937 34.6102 17.3814 34.6975 17.8137 35.4633L18.9887 37.596C19.0848 37.7608 19.1562 37.9685 19.4005 37.9685H20.4217L20.8335 37.9823C20.868 37.9516 20.8898 37.9088 20.8943 37.8626C20.8989 37.8164 20.886 37.7701 20.8582 37.7331V37.7331ZM16.7637 34.3775C16.5592 34.3775 16.1515 34.4537 16.1515 34.1809V32.2186C16.1515 31.4527 16.1762 31.3433 17.0876 31.3433C18.1542 31.3433 18.8144 31.8973 18.8144 32.8971C18.8231 33.1136 18.7772 33.3287 18.6812 33.5224C18.5852 33.7161 18.4421 33.8822 18.2653 34.005C17.8069 34.3305 17.3155 34.3734 16.7637 34.3734V34.3775Z" fill="white"/>
<path d="M16.9832 42.3306C16.9832 41.2573 16.9613 41.0939 16.2598 41.0427L15.9853 41.0233C15.9194 40.9817 15.9414 40.7989 16.0087 40.7671C16.6318 40.7879 17.0107 40.7976 17.4554 40.7976C17.9001 40.7976 18.268 40.7879 18.828 40.7685C18.8939 40.7989 18.9159 40.9817 18.85 41.0233L18.5823 41.0427C17.9262 41.0939 17.9029 41.2573 17.9029 42.3306V45.8827C17.9029 46.5267 17.9372 46.7926 18.1376 46.9906C18.2598 47.1028 18.4711 47.2247 19.351 47.2247C20.2967 47.2247 20.5301 47.1845 20.7085 47.0862C20.9309 46.9643 21.2205 46.5973 21.4429 46.0752C21.5101 46.0254 21.7174 46.0655 21.7174 46.1376C21.6086 46.6282 21.4523 47.1069 21.2507 47.5667C20.6824 47.546 19.6242 47.5363 18.478 47.5363H17.454C16.986 47.5363 16.6305 47.546 16.0073 47.5667C15.9717 47.5354 15.9495 47.4915 15.9451 47.444C15.9408 47.3966 15.9547 47.3493 15.9839 47.3119L16.3189 47.2801C16.964 47.2191 16.986 47.0765 16.986 46.0046L16.9832 42.3306Z" fill="white"/>
<path d="M46.8061 42.35C46.8061 41.2684 46.7841 41.0939 46.139 41.0427L45.8645 41.0233C45.7986 40.9817 45.8206 40.7989 45.8865 40.7671C46.4355 40.7879 46.8047 40.7976 47.2591 40.7976C47.7134 40.7976 48.0689 40.7879 48.6152 40.7685C48.6797 40.7989 48.7017 40.9817 48.6372 41.0233L48.3627 41.0427C47.7189 41.0939 47.6969 41.2684 47.6969 42.35V45.9852C47.6969 47.0682 47.7189 47.2108 48.3627 47.2815L48.6372 47.3133C48.7017 47.3535 48.6797 47.5377 48.6152 47.5681C48.0662 47.5474 47.6969 47.5377 47.2591 47.5377C46.8212 47.5377 46.4355 47.5474 45.8865 47.5681C45.8514 47.5364 45.8296 47.4924 45.8255 47.4451C45.8214 47.3978 45.8354 47.3506 45.8645 47.3133L46.139 47.2815C46.7841 47.2108 46.8061 47.0682 46.8061 45.9852V42.35Z" fill="white"/>
<path d="M38.0721 47.2798C38.0158 47.2729 37.9115 47.2646 37.9115 47.2646C37.7998 47.2671 37.6916 47.2248 37.6109 47.1469C37.4736 46.9946 37.4805 46.5611 37.4805 46.388V41.9135C37.4805 41.7183 37.4338 41.2959 37.5752 41.1449C37.6761 41.0701 37.8003 41.0343 37.9252 41.0438V41.0438L38.0775 41.0327L38.3521 41.0134C38.4193 40.9718 38.3974 40.789 38.3301 40.7572C38.1791 40.7572 38.0432 40.7572 37.9183 40.7655H36.7255C36.5882 40.7655 36.4771 40.7655 36.4057 40.904L33.972 46.0168L31.8239 41.0771C31.7525 40.904 31.7415 40.7627 31.5164 40.7627H30.2728C30.1438 40.7627 29.9983 40.7627 29.8514 40.7544C29.7841 40.7862 29.7608 40.969 29.8281 41.0106L30.1026 41.03L30.2646 41.0424C30.7313 41.0729 30.7601 41.1809 30.7175 41.6726L30.3634 46.4752C30.3318 46.9572 30.3057 47.2106 29.8061 47.2577C29.8061 47.2577 29.7004 47.2715 29.6414 47.2771L29.3669 47.3089C29.3371 47.346 29.3228 47.3933 29.3269 47.4408C29.331 47.4883 29.3532 47.5324 29.3888 47.5637L29.8006 47.5499C30.0546 47.5374 30.3126 47.5153 30.5707 47.5153C30.8452 47.5153 31.1279 47.5416 31.408 47.5526L31.8197 47.5665C31.8554 47.5352 31.8776 47.4911 31.8817 47.4436C31.8858 47.396 31.8715 47.3488 31.8417 47.3117L31.5672 47.2812L31.4093 47.2674C30.6873 47.2175 30.7038 46.7037 30.7491 46.0736L31.0785 41.6102H31.1623L33.4889 47.1026C33.5122 47.1787 33.5479 47.3089 33.6659 47.3089C33.784 47.3089 33.8032 47.1898 33.843 47.1137L36.4647 41.4801H36.5471V46.388C36.5471 46.5832 36.5718 46.9835 36.37 47.1358C36.2289 47.2014 36.0783 47.2439 35.9239 47.2618C35.8772 47.2688 35.8278 47.2757 35.7715 47.2812L35.497 47.3131C35.4673 47.3501 35.4529 47.3974 35.457 47.4449C35.4611 47.4925 35.4833 47.5365 35.519 47.5679L35.9308 47.554C36.3124 47.543 36.6994 47.5153 37.0865 47.5153C37.361 47.5153 37.9101 47.5416 37.9101 47.5416C38.0473 47.5416 38.1846 47.5596 38.3383 47.5651C38.3742 47.534 38.3967 47.49 38.401 47.4425C38.4054 47.3949 38.3913 47.3475 38.3617 47.3103L38.0721 47.2798Z" fill="white"/>
<path d="M56.3239 47.3077L56.2868 47.2772L56.1331 47.2565C55.6952 47.1581 55.525 46.6264 55.3631 46.2469L53.112 40.8695C53.0886 40.8044 53.0447 40.6646 52.9555 40.6646C52.8319 40.6646 52.799 40.8155 52.7661 40.9L50.6138 46.2677C50.5355 46.4713 50.3392 46.9601 50.1896 47.1152C50.0755 47.2152 49.929 47.2694 49.7778 47.2675L49.598 47.2855L49.3331 47.3132C49.3035 47.3505 49.2894 47.3979 49.2937 47.4454C49.2981 47.4929 49.3206 47.5369 49.3564 47.5681L49.7682 47.5528C50.062 47.5528 50.3571 47.5113 50.6522 47.5113C50.8993 47.5113 51.1477 47.5376 51.3948 47.5487L51.8066 47.5639C51.8424 47.5328 51.8649 47.4888 51.8693 47.4413C51.8736 47.3937 51.8595 47.3463 51.8299 47.3091L51.5485 47.2786L51.3962 47.2634C51.1367 47.2343 50.8142 47.1872 50.8142 46.9006C50.832 46.6962 50.8849 46.4966 50.9707 46.3106L51.3056 45.5074C51.473 45.1224 51.4058 45.0795 51.8546 45.0795H53.3645C53.8985 45.0795 53.8202 45.0795 54.0508 45.6265L54.4077 46.4394C54.4869 46.6055 54.5397 46.783 54.5642 46.9656C54.5642 47.2343 54.2718 47.2523 54 47.2745L53.8312 47.2883L53.5567 47.3091C53.5271 47.3463 53.513 47.3937 53.5173 47.4413C53.5217 47.4888 53.5442 47.5328 53.58 47.5639L53.9918 47.5473C54.3089 47.5362 54.6287 47.5113 54.9348 47.5113C55.3246 47.5113 55.7158 47.5376 56.1057 47.5487C56.2347 47.5487 56.1263 47.557 56.2745 47.5625C56.3144 47.5352 56.342 47.4931 56.3513 47.4454C56.3605 47.3977 56.3507 47.3482 56.3239 47.3077V47.3077ZM53.3741 44.7803H52.0591C52.0138 44.7803 51.6474 44.8233 51.6474 44.7153C51.653 44.6705 51.6645 44.6267 51.6817 44.5851L52.4696 42.6144C52.4929 42.5604 52.5725 42.2904 52.6645 42.2904C52.7331 42.2904 52.8237 42.5673 52.847 42.6144L53.6239 44.4549C53.6239 44.4771 53.7036 44.6502 53.7036 44.6931C53.7049 44.8122 53.4428 44.7803 53.3741 44.7803Z" fill="white"/>
<path d="M11.0582 24.2217C17.937 24.2217 27.4535 28.1295 34.3584 28.1295C39.2828 28.1295 44.0934 26.8021 46.8234 24.8489C47.325 21.8248 47.1679 18.7267 46.3629 15.7701C45.5579 12.8134 44.1242 10.0691 42.1617 7.72797C40.1992 5.38681 37.7548 3.50496 34.9986 2.21323C32.2423 0.921512 29.2403 0.250913 26.2012 0.248056C23.1621 0.245199 20.1588 0.910153 17.4002 2.19669C14.6416 3.48323 12.1938 5.36048 10.2269 7.69795C8.26006 10.0354 6.82139 12.777 6.0109 15.7321C5.20041 18.6873 5.03756 21.785 5.53365 24.8101C6.29386 24.6688 8.85917 24.2217 11.0582 24.2217Z" fill="white"/>
<path d="M39.7275 16.4358L40.5555 16.782L42.3898 15.4902L39.7275 16.4358Z" fill="#E3A82B"/>
<path d="M8.8824 14.9933L6.70796 14.217L6.81568 13.9484L9.27482 14.7759H9.28559L9.60875 14.5912L9.73802 14.5104L7.06498 13.3631L7.17886 13.0805L13.142 15.515L13.339 15.4327L7.41585 12.5185L7.54819 12.2452L13.8161 15.1874L13.9022 15.1439L7.82519 11.6661L7.94984 11.4053L16.7215 16.2183C16.7938 16.0832 16.9446 15.8395 17.0292 15.7075C14.9454 13.7411 12.7564 11.8913 10.4721 10.1663C12.8586 11.7405 15.3285 13.1819 17.871 14.484C18.0049 14.3148 18.1157 14.1735 18.2603 14.0183L10.7737 7.36852L10.9737 7.15892L17.0169 12.3554L11.4185 6.69935L11.6278 6.48044L17.9141 12.6085L12.0663 6.05658L12.2895 5.85319L17.6971 11.6956L12.7619 5.42157L12.9681 5.2306L19.2945 12.9936C19.4591 12.8523 19.5945 12.7451 19.7654 12.6132C18.5691 10.0157 17.2334 7.48584 15.7643 5.03497C17.3855 7.3834 19.1321 9.6411 20.9965 11.7981C21.1796 11.694 21.3658 11.5947 21.5551 11.5015L21.5243 11.4798L17.0908 2.55238L17.3539 2.43594L21.0272 9.53749L17.9279 2.17976L18.2034 2.05555L21.7551 10.1135L18.7636 1.82732L19.0467 1.7233L21.8936 9.1835L19.6438 1.50438L19.9131 1.40346L22.8708 10.9333V10.9581H22.8785C23.074 10.8914 23.274 10.8324 23.4756 10.778C23.328 7.93123 23.0275 5.09462 22.5754 2.28068C23.2015 5.05711 23.9762 7.79731 24.896 10.4892C25.1037 10.4628 25.3115 10.4411 25.5223 10.4271V10.4163H25.5485L25.5331 10.3945L24.7375 0.44241L25.0253 0.433093L25.7947 8.40565L25.6562 0.417568L25.964 0.408253L26.2718 9.22076L26.5795 0.408253L26.8873 0.417568L26.755 8.41031L27.5244 0.437751L27.8122 0.447067L27.0166 10.3992L27.0012 10.4209H27.015C27.2212 10.4349 27.4244 10.4551 27.6306 10.4799C28.54 7.79053 29.3044 5.05345 29.9204 2.28068C29.4707 5.08648 29.1717 7.91478 29.0248 10.7532C29.2279 10.8075 29.4295 10.8665 29.6281 10.9317L32.575 1.43607L32.8443 1.53699L30.5975 9.21921L33.4429 1.75901L33.7261 1.86303L30.733 10.1492L34.2847 2.09126L34.5617 2.21547L31.4701 9.57786L35.1434 2.47165L35.4081 2.58964L30.99 11.4844C31.1715 11.5745 31.3501 11.6692 31.5255 11.7686C33.3783 9.62065 35.1142 7.37281 36.7254 5.03497C35.2642 7.47177 33.9347 9.9865 32.7427 12.5681C32.912 12.6986 33.0798 12.8336 33.2413 12.9718L39.4938 5.2896L39.7062 5.48367L34.771 11.7577L40.1786 5.91685L40.4018 6.12024L34.554 12.6722L40.8388 6.54254L41.0496 6.76146L35.4512 12.4175L41.4944 7.22258L41.6944 7.43062L34.2986 14.0059C34.4278 14.1502 34.5525 14.3008 34.674 14.453C37.1965 13.1581 39.6474 11.726 42.016 10.1632C39.7497 11.875 37.5772 13.7098 35.5081 15.6594C35.6004 15.8146 35.7466 16.0739 35.8297 16.2323L44.4829 11.4782L44.6075 11.7406L37.701 15.692L44.8845 12.3197L45.0153 12.593L38.3258 15.8829L38.4535 15.928L45.2615 13.1488L45.3754 13.4314L39.046 16.1469L39.1645 16.1966L43.381 14.7775L44.0166 14.3303L44.229 14.4934L45.6139 14.0276L45.7232 14.2962L44.5229 14.7231L46.2572 16.0584L46.8127 16.3689C45.6844 11.6597 43.0055 7.47634 39.2141 4.50309C35.4227 1.52985 30.7435 -0.0572096 25.9418 0.00157626C21.1402 0.0603621 16.5004 1.76151 12.7817 4.8267C9.06298 7.89189 6.48541 12.1397 5.4707 16.875L5.54765 16.8362L5.80156 16.7213L5.95545 16.6468L8.8824 14.9933Z" fill="#E3A82B"/>
<path d="M5.35057 25.2591C5.35057 25.2591 8.47758 24.638 11.0891 24.638C17.9679 24.638 27.4843 28.5459 34.3877 28.5459C39.4537 28.5459 44.3904 27.1486 47.0866 25.1007C47.5896 22.205 47.5001 19.2361 46.8234 16.3767L43.9457 14.7573L40.5679 17.1468L38.2965 16.254C37.527 16.6468 32.7811 19.8483 32.7811 19.8483L30.9606 18.5177L29.0062 18.128L26.4009 16.2137L23.4124 18.2848C23.4124 18.2848 20.0777 20.238 19.9622 20.238C19.8468 20.238 15.9396 17.1111 15.9396 17.1111L14.1391 15.1983C13.8313 15.3923 12.6002 15.9606 12.6002 15.9606L12.5371 15.9777L11.3522 15.6066L9.91182 14.8303L5.54755 16.8362L5.47061 16.8751C4.8865 19.6348 4.84571 22.4835 5.35057 25.2591V25.2591Z" fill="#65799E"/>
</svg>
