<?xml version="1.0" encoding="UTF-8"?>
<svg id="Logos" xmlns="http://www.w3.org/2000/svg" viewBox="0 0 500 143.3335483">
  <defs>
    <style>
      .cls-1, .cls-2, .cls-3, .cls-4 {
        fill: #039;
      }

      .cls-5 {
        fill: #221f20;
      }

      .cls-2 {
        opacity: .5;
      }

      .cls-3 {
        opacity: .75;
      }

      .cls-4 {
        opacity: .25;
      }
    </style>
  </defs>
  <g>
    <path class="cls-5" d="M159.5989756,58.1010663c0-15.9960938,10.1850586-21.6196289,19.2451172-21.6196289,9.6225586,0,18.0581055,5.7485352,18.0581055,21.6196289,0,14.246582-7.5605469,21.4326172-18.8701172,21.4326172-11.6220703,0-18.4331055-7.2485352-18.4331055-21.4326172Zm26.3061523,.1875c0-5.2485352-1.375-12.871582-7.6855469-12.871582-5.6240234,0-7.6235352,5.9985352-7.6235352,12.2470703,0,5.8110352,1.25,13.059082,7.8730469,13.059082,5.7490234,0,7.4360352-6.0610352,7.4360352-12.4345703Z"/>
    <path class="cls-5" d="M216.0877452,45.8539959c10.0600586,0,15.121582,5.6865234,15.121582,16.7460938,0,11.1225586-5.3110352,17.1835938-13.934082,17.1835938-1.6245117,0-3.4990234-.4375-4.6865234-1v13.121582h-10.4350586V48.2285077c5.0615234-1.7495117,10.6850586-2.3745117,13.934082-2.3745117Zm4.6240234,17.2460938c0-5.5610352-.9370117-9.3725586-4.9985352-9.3725586-1.25,0-2.3745117,.2495117-3.1245117,.4995117v17.0585938c.8125,.5620117,2.2495117,.8745117,3.4365234,.8745117,3.6245117,0,4.6865234-3.6865234,4.6865234-9.0600586Z"/>
    <path class="cls-5" d="M234.7112803,63.6625897c0-9.0605469,5.4360352-17.8085938,16.0585938-17.8085938,6.5610352,0,10.9350586,3.1870117,10.9350586,9.8105469,0,8.9975586-9.7480469,10.9345703-16.3710938,11.3095703,.4375,2.6870117,2.3745117,5.0610352,6.1860352,5.0610352,2.9990234,0,5.7485352-1.3745117,7.6855469-2.6865234l2.8115234,6.8730469c-.3120117,.3125-5.0610352,3.5620117-11.9970703,3.5620117-10.9345703,0-15.3085938-6.6235352-15.3085938-16.1210938Zm17.9956055-7.9355469c0-1.5625-.9995117-2.5620117-2.5620117-2.5620117-3.1240234,0-5.0610352,2.9365234-5.2485352,7.2480469,3.3740234-.1875,7.8105469-1.6245117,7.8105469-4.6860352Z"/>
    <path class="cls-5" d="M265.5188975,46.8539959h8.6225586l.625,3.3740234c1.9995117-2.6865234,4.9365234-4.3740234,9.1230469-4.3740234,6.1230469,0,9.9970703,3.4370117,9.9970703,11.0600586v21.8696289h-10.4345703v-20.0576172c0-2.9365234-.375-4.8740234-2.8745117-4.8740234s-3.9990234,1.9995117-3.9990234,4.6240234v20.3076172h-10.3725586v-25.5561523l-.6870117-6.3735352Z"/>
    <path class="cls-5" d="M308.0105967,37.2314374l4.8740234,26.6806641h.125l4.8110352-23.5566406h10.3725586l4.4365234,22.6821289h.1875l3.9365234-25.8061523h10.7475586l-8.3105469,41.5522461h-11.1850586l-5.0610352-22.5571289h-.25l-5.1860352,22.5571289h-11.4350586l-8.8100586-41.5522461h10.7470703Z"/>
    <path class="cls-5" d="M347.7552256,64.2246014c0-10.9970703,5.7485352-18.3706055,16.9335938-18.3706055,2.1870117,0,7.0605469,.5625,12.0595703,2.4995117v23.6816406l.6870117,6.7485352h-8.8100586l-.5-2.9370117-.3125-.0620117c-1.6870117,2.4365234-4.2490234,3.9990234-7.8105469,3.9990234-9.6225586,0-12.2470703-7.4985352-12.2470703-15.559082Zm18.6831055,4.4990234v-15.0585938c-.75-.3125-1.7495117-.5-2.8745117-.5-4.1240234,0-5.4985352,4.9360352-5.4985352,10.3100586,0,4.8110352,.875,8.8100586,4.4990234,8.8100586,2.4365234,0,3.8740234-1.7495117,3.8740234-3.5615234Z"/>
    <path class="cls-5" d="M383.0623546,67.4741131V35.3569256h10.4350586v32.1171875c0,2.8115234,.75,4.1240234,2.7495117,4.1240234,.9370117,0,2.1870117-.375,3.6240234-1l2.2495117,6.8735352c-2.2495117,1.6245117-5.9360352,2.3120117-8.7480469,2.3120117-9.6850586,0-10.3100586-6.3110352-10.3100586-12.3095703Z"/>
    <path class="cls-5" d="M404.1209483,67.4741131V35.3569256h10.4350586v32.1171875c0,2.8115234,.75,4.1240234,2.7495117,4.1240234,.9370117,0,2.1870117-.375,3.6240234-1l2.2495117,6.8735352c-2.2495117,1.6245117-5.9360352,2.3120117-8.7480469,2.3120117-9.6850586,0-10.3100586-6.3110352-10.3100586-12.3095703Z"/>
    <path class="cls-5" d="M423.7430186,63.6625897c0-9.0605469,5.4360352-17.8085938,16.0585938-17.8085938,6.5610352,0,10.9350586,3.1870117,10.9350586,9.8105469,0,8.9975586-9.7475586,10.9345703-16.3710938,11.3095703,.4375,2.6870117,2.3745117,5.0610352,6.1860352,5.0610352,2.9990234,0,5.7485352-1.3745117,7.6855469-2.6865234l2.8115234,6.8730469c-.3120117,.3125-5.0610352,3.5620117-11.9970703,3.5620117-10.9345703,0-15.3085938-6.6235352-15.3085938-16.1210938Zm17.9956055-7.9355469c0-1.5625-.9995117-2.5620117-2.5620117-2.5620117-3.1240234,0-5.0610352,2.9365234-5.2485352,7.2480469,3.3740234-.1875,7.8105469-1.6245117,7.8105469-4.6860352Z"/>
    <path class="cls-5" d="M455.1746592,67.8486249V35.3569256h10.4975586v11.4970703h7.8105469v8.0605469h-7.8105469v12.4970703c0,3.4365234,1.6245117,4.4985352,3.7490234,4.4985352,1.1875,0,2.3745117-.4995117,3.3745117-1.0620117l2.3115234,6.6235352c-1.9370117,1.3120117-5.4360352,2.3120117-8.9350586,2.3120117-10.2475586,0-10.9975586-6.0610352-10.9975586-11.9350586Z"/>
    <path class="cls-5" d="M165.8567881,99.7363202h12.3828125v2.0966797h-10.0307617v6.0922852h9.8325195v2.0966797h-9.8325195v8.6142578h-2.3520508v-18.8999023Z"/>
    <path class="cls-5" d="M198.5594249,99.4247967c5.5820312,0,9.3789062,4.1933594,9.3789062,9.7758789,0,5.5820312-3.796875,9.7753906-9.3789062,9.7753906-5.6103516,0-9.3789062-4.1933594-9.3789062-9.7753906,0-5.5825195,3.7685547-9.7758789,9.3789062-9.7758789Zm0,2.0966797c-4.2504883,0-6.9423828,3.2587891-6.9423828,7.6791992,0,4.3916016,2.6918945,7.6787109,6.9423828,7.6787109,4.222168,0,6.9423828-3.2871094,6.9423828-7.6787109,0-4.4204102-2.7202148-7.6791992-6.9423828-7.6791992Z"/>
    <path class="cls-5" d="M220.127296,99.7363202h2.3520508v11.5043945c0,3.4570312,1.8701172,5.6386719,5.3554688,5.6386719s5.3554688-2.1816406,5.3554688-5.6386719v-11.5043945h2.3515625v11.5327148c0,4.7036133-2.578125,7.7070312-7.7070312,7.7070312s-7.7075195-3.0317383-7.7075195-7.6787109v-11.5610352Z"/>
    <path class="cls-5" d="M250.8191905,103.3915936v15.2446289h-2.3520508v-18.8999023h2.4086914l10.8808594,14.9331055v-14.9331055h2.3520508v18.8999023h-2.2670898l-11.0224609-15.2446289Z"/>
    <path class="cls-5" d="M277.033546,99.7363202h6.4609375c5.8652344,0,9.6904297,4.1088867,9.6904297,9.4643555,0,5.3837891-3.8251953,9.4355469-9.6904297,9.4355469h-6.4609375v-18.8999023Zm6.4609375,16.8032227c4.590332,0,7.2539062-3.2871094,7.2539062-7.3388672,0-4.0805664-2.5786133-7.3676758-7.2539062-7.3676758h-4.1088867v14.706543h4.1088867Z"/>
    <path class="cls-5" d="M316.2264171,114.4423749h-9.5776367l-1.671875,4.1938477h-2.6069336l7.5942383-18.8999023h2.918457l7.6220703,18.8999023h-2.6069336l-1.6713867-4.1938477Zm-8.8974609-2.0966797h8.1889648l-4.0805664-10.5126953-4.1083984,10.5126953Z"/>
    <path class="cls-5" d="M334.2518077,101.8329999h-5.9790039v-2.0966797h14.3378906v2.0966797h-6.0073242v16.8032227h-2.3515625v-16.8032227Z"/>
    <path class="cls-5" d="M354.2317881,99.7363202h2.3520508v18.8999023h-2.3520508v-18.8999023Z"/>
    <path class="cls-5" d="M378.1209483,99.4247967c5.5820312,0,9.3789062,4.1933594,9.3789062,9.7758789,0,5.5820312-3.796875,9.7753906-9.3789062,9.7753906-5.6103516,0-9.3789062-4.1933594-9.3789062-9.7753906,0-5.5825195,3.7685547-9.7758789,9.3789062-9.7758789Zm0,2.0966797c-4.2504883,0-6.9423828,3.2587891-6.9423828,7.6791992,0,4.3916016,2.6918945,7.6787109,6.9423828,7.6787109,4.222168,0,6.9423828-3.2871094,6.9423828-7.6787109,0-4.4204102-2.7202148-7.6791992-6.9423828-7.6791992Z"/>
    <path class="cls-5" d="M402.0408702,103.3915936v15.2446289h-2.3520508v-18.8999023h2.4086914l10.8808594,14.9331055v-14.9331055h2.3520508v18.8999023h-2.2670898l-11.0224609-15.2446289Z"/>
  </g>
  <g>
    <path class="cls-4" d="M108.3079007,13.1619655l37.8813736,21.3082727c.4964132,.2792324,.742272,.8579602,.5986256,1.4091067l-18.4729575,70.8775991c-.2025825,.7772747-1.0735324,1.1662909-1.787593,.7984415l-39.0831327-20.133735c-.5264351-.2711939-.7913727-.8737139-.6353811-1.4449816L106.4835523,13.9245321c.2149986-.7873611,1.1129794-1.1627117,1.8243484-.7625666Z"/>
    <path class="cls-2" d="M68.2719828,35.830107l38.3805089,22.7595619c.2331197,.138388,.4151094,.3486024,.5186917,.5991353l21.1785676,46.8249941c.4483395,1.0843917-.7053465,2.1354651-1.743408,1.5883436l-39.1255339-20.1266355c-.2748709-.1448737-.486163-.3866422-.5929182-.6784396l-20.4335426-49.4579206c-.4051723-1.1074709,.8035903-2.1110116,1.8176345-1.5090393Z"/>
    <path class="cls-3" d="M68.2926253,35.8180644l37.9020462,22.5043399c.4878442,.2896575,.7204061,.8707985,.5670744,1.4170428l-19.3870962,69.0665303c-.2144869,.7641097-1.0759398,1.1392625-1.7814676,.7758087l-39.0965411-20.1406424c-.5322856-.2742077-.7964284-.8864946-.6306479-1.4618507l20.5815911-71.4302279c.2273346-.7889849,1.1390285-1.1501958,1.8450411-.7310008Z"/>
    <path class="cls-1" d="M20.7708368,38.0414525l38.3565701,21.4883229c.2468949,.1388784,.4394895,.3572654,.5464106,.6195862l27.6478597,67.8314557c.4395277,1.0783403-.7001891,2.121241-1.7353779,1.587962l-39.5802108-20.3803443c-.2739368-.1411189-.4863172-.3781689-.5966055-.6659055L18.9852639,39.5830952c-.4202655-1.0964512,.7621382-2.1173247,1.7855729-1.5416427Z"/>
  </g>
</svg>