<?xml version="1.0" encoding="UTF-8" standalone="no"?>
<svg
   xmlns:dc="http://purl.org/dc/elements/1.1/"
   xmlns:cc="http://creativecommons.org/ns#"
   xmlns:rdf="http://www.w3.org/1999/02/22-rdf-syntax-ns#"
   xmlns:svg="http://www.w3.org/2000/svg"
   xmlns="http://www.w3.org/2000/svg"
   viewBox="0 0 425 118"
   height="118"
   width="425"
   id="svg3767"
   version="1.1">
  <metadata
     id="metadata3773">
    <rdf:RDF>
      <cc:Work
         rdf:about="">
        <dc:format>image/svg+xml</dc:format>
        <dc:type
           rdf:resource="http://purl.org/dc/dcmitype/StillImage" />
        <dc:title></dc:title>
      </cc:Work>
    </rdf:RDF>
  </metadata>
  <defs
     id="defs3771" />
  <path
     id="path3777"
     d="m 207.99982,113.25 c -1.6e-4,-0.67935 65.02944,-0.67278 151.50018,0.0153 18.15,0.14443 -8.5125,0.36882 -59.25,0.49865 -50.7375,0.12983 -92.25008,-0.10145 -92.25018,-0.51395 z M 102,112.35343 C 100.625,112.08495 89.825,109.69098 78,107.03351 45.118992,99.644057 37.752169,98.610857 23.058137,99.327897 16.151162,99.664937 9.5297759,100.22047 8.3439469,100.56241 6.3093829,101.1491 6.1475079,100.75315 5.4711689,93.535607 1.8658229,55.061217 27.65699,18.734677 66,8.2814968 c 4.864656,-1.32622 10.148076,-1.7635 21,-1.73806 13.79523,0.0323 14.97686,0.1972 24.31108,3.39182 27.27685,9.3354502 46.56604,29.6525102 53.81874,56.6865902 2.67213,9.96023 3.19117,31.07057 0.83447,33.939163 -2.23381,2.71901 -14.57137,8.05982 -22.96429,9.94103 -7.33735,1.6446 -35.53751,2.91801 -41,1.85139 z M 68.919143,78.858487 c 3.069471,-1.72784 8.143666,-4.87784 11.275988,-7 3.132321,-2.12217 6.222032,-3.85849 6.866023,-3.85849 0.64399,0 3.256182,1.51016 5.804869,3.35592 2.548687,1.84575 6.201614,3.65552 8.117617,4.02172 1.916,0.3662 5.10056,1.73585 7.07679,3.04366 l 3.59316,2.37784 10.42321,-6.77124 10.4232,-6.77124 4.5,1.76583 4.5,1.76584 6.41912,-4.56537 c 6.41683,-4.56374 6.42019,-4.56477 9.38545,-2.86294 3.82654,2.19613 4.61547,1.47284 0.98684,-0.90473 l -2.77101,-1.81564 2.9898,-1.27472 c 4.91315,-2.09475 0.42422,-1.52903 -5.38393,0.67852 -7.75444,2.94728 -7.35162,1.77737 0.54334,-1.57803 3.68114,-1.56451 6.20718,-3.00649 5.61343,-3.2044 -0.59375,-0.19792 -3.90292,0.78739 -7.3537,2.18957 -8.55451,3.476 -8.74447,3.12589 -0.5777,-1.0648 3.7684,-1.93371 6.64566,-3.72182 6.39392,-3.97356 -0.25175,-0.25175 -3.48943,0.90251 -7.19486,2.56503 -8.90847,3.99696 -9.56599,3.79379 -1.6048,-0.49587 3.54524,-1.91025 6.92024,-3.98128 7.5,-4.60229 1.57632,-1.68848 0.54518,-1.20166 -16.84834,7.95425 -22.9935,12.10373 -22.61089,9.26731 1.12565,-8.34474 8.87974,-6.58859 5.13141,-4.95496 -8.19592,3.57202 -9.55943,6.11623 -13.00995,7.85672 -13.87031,6.99635 -0.86036,-0.86036 0.84343,-2.98854 6.84887,-8.55481 4.39678,-4.07525 7.56296,-7.43038 7.03594,-7.45585 -0.52701,-0.0255 0.8384,-1.95882 3.03425,-4.29632 10.36818,-11.037 9.54303,-11.93028 -1.38558,-1.5 l -7.59639,7.25 7.19953,-8 c 3.95975,-4.4 7.20108,-8.437 7.20297,-8.97111 0.002,-0.53411 -2.83393,1.84103 -6.30182,5.27809 -3.46788,3.43706 -6.57463,5.97981 -6.90389,5.65055 -0.32925,-0.32925 -3.63646,3.03047 -7.34936,7.46605 -5.24644,6.26763 -7.04464,7.82075 -8.06977,6.96997 -1.55977,-1.29449 -1.47428,-1.48428 7.55828,-16.77859 3.37328,-5.71178 5.98277,-10.53551 5.79887,-10.71941 -0.1839,-0.1839 -4.11375,5.06741 -8.733,11.66959 -5.56544,7.95454 -8.92104,11.88793 -9.94725,11.66002 -0.85175,-0.18917 -1.47321,-0.76721 -1.38102,-1.28455 0.0922,-0.51733 3.58754,-8.09525 7.76746,-16.83982 4.17991,-8.74456 7.39697,-16.10208 7.14901,-16.35004 -0.24796,-0.24796 -1.80917,2.18168 -3.46936,5.39921 -3.47428,6.73332 -4.03302,6.65816 -1.11472,-0.14996 3.45877,-8.06899 2.00558,-7.36188 -2.05513,1 -4.52674,9.32154 -4.92731,9.34822 -1.44487,0.0962 3.32964,-8.84605 3.0312,-10.56817 -0.53658,-3.09623 -3.26717,6.84239 -3.65899,6.89767 -1.37481,0.19397 0.87373,-2.56427 1.39221,-5.23193 1.15217,-5.92814 -0.24004,-0.6962 -2.99959,6.72167 -6.13233,16.48417 -5.37325,16.74456 -6.899525,19.76101 -8.23623,16.27761 -0.504805,-1.3155 1.905738,-21.1552 3.34463,-27.52761 0.31048,-1.375 0.23111,-2.19241 -0.17637,-1.81647 -0.40747,0.37594 -1.835883,5.32594 -3.174238,11 -3.944282,16.72209 -4.315687,17.81647 -6.046449,17.81647 -1.41957,0 -1.527402,-1.40256 -0.94181,-12.25 0.36372,-6.7375 0.936054,-15.4 1.271852,-19.25 0.805537,-9.2356402 -0.621638,-7.7470702 -1.610433,1.67972 l -0.767841,7.32028 -0.135781,-7.91666 C 88.960825,4.3825468 87.718727,5.6374068 86.930066,16.811667 l -0.613206,8.6883 -0.15843,-9.41666 C 86.07129,10.904137 85.6625,7.0044468 85.25,7.4173368 c -0.4125,0.41288 -0.679357,4.8753802 -0.593016,9.9166602 l 0.156984,9.16597 -1.158449,-10 c -0.637147,-5.5 -1.42399,-9.5500002 -1.74854,-9.0000002 -0.535254,0.90707 -0.266087,6.0857802 1.546273,29.7500002 0.558036,7.28636 0.473635,7.75 -1.410801,7.75 -1.255484,0 -2.201602,-0.84064 -2.532303,-2.25 -6.631454,-28.26137 -7.83748,-30.60217 -4.657787,-9.04039 1.570997,10.65308 1.613189,12.2815 0.33096,12.77354 -0.808267,0.31016 -1.564497,0.44084 -1.68051,0.29039 -0.116013,-0.15044 -2.813851,-8.37354 -5.995197,-18.27354 -3.181346,-9.9 -5.952689,-17.53299 -6.15854,-16.9622 -0.205851,0.5708 0.755426,4.35926 2.136172,8.41882 1.380746,4.05957 2.35861,7.53286 2.173033,7.71844 -0.185578,0.18558 -1.596047,-2.92789 -3.134376,-6.91882 -2.673879,-6.93692 -4.528283,-10.30346 -4.520276,-8.20624 0.002,0.5225 1.339263,4.52524 2.971708,8.89496 1.632444,4.36973 2.835205,8.07784 2.672801,8.24024 -0.162404,0.1624 -1.79654,-3.18783 -3.631415,-7.44496 -1.834874,-4.25713 -3.714267,-8.16774 -4.176428,-8.69024 -1.585312,-1.79228 -0.866981,1.1408 1.70207,6.94988 3.395438,7.67768 2.57172,8.06166 -1.047926,0.48848 -1.574196,-3.29359 -3.20467,-5.98836 -3.623277,-5.98836 -0.937063,0 2.278797,7.34444 9.661608,22.06534 4.778949,9.52895 5.414722,11.41575 4.241855,12.58861 -1.172868,1.17287 -2.69624,-0.49638 -10.163891,-11.13715 -4.831333,-6.88424 -8.996759,-12.5168 -9.256503,-12.5168 -0.259745,0 -0.284207,0.3375 -0.05436,0.75 0.229846,0.4125 3.677983,6.31235 7.662527,13.11078 6.056761,10.33404 7.022697,12.57566 5.891116,13.67134 -1.12715,1.09138 -3.360403,-1.09386 -13.353512,-13.06645 -6.6,-7.90736 -12.407244,-14.39696 -12.904988,-14.42134 -0.497743,-0.0244 -0.248323,0.74317 0.554265,1.70567 0.802589,0.9625 3.878559,4.675 6.83549,8.25 l 5.376236,6.5 -7.793429,-7.5 c -4.286386,-4.125 -7.333932,-6.6 -6.772324,-5.5 0.561608,1.1 2.232208,3.125 3.712444,4.5 1.480236,1.375 4.071812,4.3 5.759058,6.5 1.956164,2.55065 0.289577,1.29152 -4.599516,-3.47497 -9.730857,-9.48684 -10.051783,-8.02838 -0.417236,1.89616 l 7.25,7.46821 -7.790512,-6.82085 c -4.284782,-3.75147 -8.000248,-6.61112 -8.256592,-6.35478 -0.256344,0.25635 5.611886,5.97447 13.040512,12.70694 C 48.922033,52.653147 55,58.548627 55,59.021737 c 0,2.50716 -2.912809,1.33302 -13.181858,-5.31353 -14.353384,-9.2901 -14.262485,-9.23622 -13.500155,-8.00274 0.344852,0.55798 5.58866,4.79001 11.652908,9.40451 9.853417,7.49781 12.984038,10.88999 10.050284,10.88999 -0.538351,0 -8.22257,-3.86578 -17.076041,-8.59062 -8.853472,-4.72485 -16.33412,-8.35373 -16.623664,-8.06418 -0.289544,0.28954 2.669675,2.13598 6.576041,4.10319 C 26.803882,55.415577 30,57.224407 30,57.467987 c 0,0.24358 -3.185584,-0.91272 -7.079076,-2.56955 -3.893491,-1.65683 -7.546535,-2.8566 -8.117875,-2.66615 -0.571339,0.19045 2.850885,2.07945 7.604943,4.19777 4.754058,2.11833 8.476195,4.01906 8.271415,4.22384 -0.20478,0.20478 -2.038708,-0.32393 -4.075396,-1.17491 C 16.832908,55.396357 13,54.100237 13,54.878707 c 0,0.46725 2.020346,1.62112 4.489658,2.56416 6.529211,2.49353 6.565386,3.81237 0.04302,1.56835 C 14.489705,57.964277 12,57.462227 12,57.895547 c 0,0.43332 1.897469,1.35634 4.216598,2.05117 4.618372,1.3837 4.754028,0.94348 -1.716598,5.57052 -1.1,0.78659 0.555185,0.2988 3.678189,-1.08398 l 5.678189,-2.51415 3.807002,2.04043 c 4.376237,2.34553 6.21772,2.50736 9.825589,0.86351 2.38674,-1.08748 2.941377,-0.82499 7.297053,3.45342 5.221206,5.12858 16.198321,13.65526 17.633121,13.69686 0.505529,0.0147 3.430529,-1.38704 6.5,-3.11487 z m 69.697917,-10.73849 c -1.48349,-0.58257 -0.64428,-1.19572 3.95603,-2.89035 3.21143,-1.18301 5.97941,-2.01048 6.15105,-1.83884 0.35194,0.35194 -7.085,5.64804 -7.77789,5.53891 -0.24544,-0.0387 -1.29357,-0.40303 -2.32919,-0.80972 z m 1.34872,-29.47125 c 2.84077,-2.66819 4.98458,-5.03172 4.76402,-5.25228 -0.22056,-0.22056 -3.06249,2.09995 -6.31541,5.15667 -3.25291,3.05673 -5.39672,5.42026 -4.76402,5.25228 0.63271,-0.16798 3.47464,-2.48848 6.31541,-5.15667 z m -1.01431,-12.14875 c 0,-0.55 -2.44654,1.7 -5.43675,5 -2.99021,3.3 -5.43675,6.45 -5.43675,7 0,0.55 2.44654,-1.7 5.43675,-5 2.99021,-3.3 5.43675,-6.45 5.43675,-7 z m 50.55076,71.97621 C 182.57308,94.743957 180,90.471307 180,82.697547 c 0,-12.15277 10.92991,-19.51855 25.33563,-17.07393 5.14266,0.8727 5.16559,0.8932 5.45407,4.87638 l 0.28969,4 -1.99187,-3.19553 c -4.13289,-6.63033 -14.99406,-6.59175 -20.84671,0.074 -6.7616,7.70104 -4.23441,21.47072 4.79783,26.14147 1.57412,0.81401 4.96875,1.48002 7.54362,1.48002 4.11413,0 5.11047,-0.45454 8.21991,-3.75 l 3.53832,-3.75 -0.74101,3 c -0.40755,1.65 -1.18146,3.45 -1.71979,4 -1.76505,1.803323 -17.01837,1.785513 -20.37746,-0.0238 z m 32.754,-0.12086 c -6.85849,-3.3811 -9.42745,-13.28187 -5.23183,-20.16349 3.82573,-6.27494 14.02449,-8.92265 20.95567,-5.4403 10.21954,5.13448 10.65447,19.23274 0.77907,25.25385 -4.01015,2.445013 -11.91315,2.612603 -16.50291,0.34994 z m 15.61647,-1.45137 c 5.81837,-5.42065 5.39005,-16.84918 -0.83967,-22.40398 -3.48887,-3.11089 -11.21064,-2.77693 -14.61987,0.6323 -5.11098,5.11098 -4.19987,16.34506 1.73032,21.33498 3.91061,3.29056 10.44293,3.49834 13.72922,0.4367 z m 11.8773,2.06486 c 2.15903,-0.86782 2.25,-1.39219 2.25,-12.96884 0,-11.57664 -0.091,-12.10101 -2.25,-12.96883 -1.69956,-0.68315 -0.78217,-0.89152 3.75,-0.85178 3.3,0.0289 5.2125,0.25841 4.25,0.50994 -1.54722,0.40433 -1.75,1.88486 -1.75,12.77701 0,13.69201 -0.0824,13.53366 7.04132,13.53366 2.94155,0 4.49723,-0.66392 6.44369,-2.75 l 2.56595,-2.75 -1.12331,3.25 -1.1233,3.25 -11.15218,-0.0634 c -7.69542,-0.0437 -10.45476,-0.34371 -8.90217,-0.96777 z m 30.75,-0.12357 c -3.91984,-2.14398 -4.5,-3.94442 -4.5,-13.96497 0,-7.51888 -0.35803,-10.09547 -1.57143,-11.30887 -1.42857,-1.42857 -1.17857,-1.56425 2.75,-1.49248 2.37679,0.0434 3.75893,0.30592 3.07143,0.58333 -0.88297,0.35629 -1.25,3.43878 -1.25,10.49798 0,9.71221 0.0823,10.07589 2.92308,12.91667 4.4141,4.414103 11.35076,3.51695 14.21706,-1.83877 1.9778,-3.69555 1.8704,-19.98837 -0.14014,-21.25932 -1.09915,-0.69482 -0.47878,-0.9523 2.32143,-0.96352 3.47402,-0.0139 3.67857,0.12754 2.25,1.55611 -1.18144,1.18144 -1.57143,3.67551 -1.57143,10.04966 0,9.55025 -1.57881,13.88808 -5.613,15.42187 -3.34842,1.273073 -10.39566,1.164963 -12.887,-0.19769 z m 26.25,0.12357 c 1.66066,-0.6675 2.27281,-1.76409 2.33707,-4.18661 0.0479,-1.80523 0.39147,-7.2736 0.7635,-12.15194 0.6319,-8.28589 0.54389,-8.92348 -1.33707,-9.68661 -1.54548,-0.62702 -1.07266,-0.83164 2.03413,-0.88029 l 4.04764,-0.0634 4.45236,10.48508 c 2.4488,5.7668 4.68728,10.4918 4.97439,10.5 0.28711,0.008 2.87192,-4.71008 5.74402,-10.48508 l 5.222,-10.5 3.75598,0.116 c 2.06579,0.0638 2.96848,0.3218 2.00598,0.57333 -1.54855,0.40468 -1.75,1.89149 -1.75,12.91622 0,11.98571 0.0855,12.49325 2.25,13.36329 1.68478,0.6772 0.61713,0.90439 -4.25,0.90439 -4.86713,0 -5.93478,-0.22719 -4.25,-0.90439 2.16216,-0.86908 2.24665,-1.36439 2.16423,-12.68661 l -0.0858,-11.78223 -5.99621,12.48766 -5.9962,12.48766 -5.30112,-12.39367 c -5.87212,-13.72864 -6.02572,-13.71942 -6.96836,0.41835 -0.63458,9.51748 -0.27322,10.96717 2.93344,11.76832 1.1,0.27482 -0.475,0.52336 -3.5,0.5523 -4.23601,0.0405 -4.98291,-0.15523 -3.25,-0.85178 z m 41.25,0.35748 c 2.64904,-1.1059 2.96909,-2.61878 2.98469,-14.10854 0.0147,-10.79265 -0.0823,-11.31846 -2.23469,-12.11734 -1.95968,-0.72736 -1.68961,-0.93012 2.09298,-1.57138 5.18311,-0.8787 14.32989,0.1108 16.44421,1.77893 2.91871,2.30276 3.02466,5.47107 0.27491,8.22082 -3.13548,3.13548 -3.13489,3.11062 -0.091,3.87459 5.23002,1.31265 5.95052,8.46901 1.20793,11.99771 -2.34435,1.74429 -4.4562,2.13712 -12.5,2.32516 -5.32345,0.12444 -9.00403,-0.0555 -8.17903,-0.39995 z m 16.43373,-1.47807 c 7.31424,-3.33259 2.58608,-12.84825 -6.38407,-12.84825 -3.04901,0 -3.04966,0.001 -3.04966,5.8 0,3.19 0.54,6.34 1.2,7 1.51614,1.51614 4.96766,1.53637 8.23373,0.0482 z m -1.22583,-15.09825 c 4.51617,-3.5501 2.00006,-9.52219 -4.2079,-9.9876 l -3.5,-0.2624 -0.2999,5.75 -0.29991,5.75 h 3.35878 c 1.84732,0 4.07434,-0.5625 4.94893,-1.25 z m 13.5421,16.21884 c 2.15903,-0.86782 2.25,-1.39219 2.25,-12.96884 0,-11.57664 -0.091,-12.10101 -2.25,-12.96883 -1.69956,-0.68315 -0.78217,-0.89152 3.75,-0.85178 3.3,0.0289 5.25868,0.24952 4.35263,0.49018 -2.27149,0.60332 -2.82312,3.33925 -2.83898,14.08043 -0.0117,7.92773 0.27225,9.5359 1.98635,11.25 l 2,2 -5.75,-0.0634 c -4.46118,-0.0492 -5.24568,-0.2661 -3.5,-0.96777 z m 14.87384,0.0467 c 2.02263,-0.81685 4.79612,-6.48232 10.60718,-21.66755 1.1256,-2.94137 2.34321,-5.34796 2.70581,-5.34796 0.3626,0 2.85316,5.2135 5.53458,11.58554 2.68143,6.37205 5.72997,12.67205 6.77454,14 l 1.89921,2.414463 -5.82258,-0.136183 c -3.20242,-0.0749 -4.81008,-0.3312 -3.57258,-0.56955 2.78581,-0.53657 2.8638,-2.77527 0.24626,-7.06844 -1.09794,-1.80079 -2.00614,-3.82579 -2.01822,-4.5 -0.0121,-0.6742 -0.96109,-3.25083 -2.10891,-5.72583 l -2.08695,-4.5 -1.98843,4.5 c -1.09363,2.475 -2.10355,4.95 -2.24426,5.5 -0.14071,0.55 -0.99691,2.67305 -1.90266,4.71788 -2.15543,4.86611 -2.08351,5.67105 0.60317,6.75096 1.7472,0.70229 1.02094,0.90439 -3.25,0.90439 -4.04253,0 -4.93719,-0.22729 -3.37616,-0.85772 z M 211.07977,57.711077 c 1.70087,-1.58459 1.91848,-3.24102 1.90492,-14.5 -0.008,-6.99108 -0.34592,-13.22149 -0.75,-13.84536 -0.40408,-0.62388 -1.63469,-1.38094 -2.73469,-1.68237 -1.1,-0.30142 3.04756,-0.46598 9.2168,-0.36568 12.58114,0.20455 14.61653,1.13953 14.61653,6.71428 0,2.24308 -0.82458,3.80129 -2.91666,5.51166 -2.05956,1.68377 -2.44203,2.39507 -1.30153,2.42046 0.88833,0.0198 2.80083,0.96862 4.25,2.10854 2.03261,1.59885 2.63486,2.95396 2.63486,5.92858 0,6.98505 -4.05049,9.20699 -17.08826,9.37395 -9.41486,0.12057 -9.68578,0.063 -7.83197,-1.66406 z m 19.19986,-2.87399 c 2.31339,-3.10994 1.80513,-6.74854 -1.35376,-9.69149 -2.09192,-1.94892 -9.28875,-3.65736 -10.98654,-2.60807 -1.40889,0.87074 -1.15315,12.84868 0.30546,14.3073 0.72352,0.72352 3.08928,1.12134 5.64938,0.95 3.41116,-0.22831 4.85136,-0.89541 6.38546,-2.95774 z m -3.50214,-15.39376 c 2.82842,-1.9811 2.94021,-6.7256 0.22251,-9.4433 -1.33333,-1.33333 -3.33333,-2 -6,-2 h -4 v 6.5 6.5 h 3.77749 c 2.07763,0 4.77763,-0.70051 6,-1.5567 z m 15.11322,19.40143 C 243.88311,58.107717 244,57.368197 244,45.500027 c 0,-12.09516 -0.084,-12.59822 -2.25,-13.46883 -1.62439,-0.65293 0.0528,-0.92202 6.03212,-0.96778 5.00177,-0.0383 9.61749,0.49457 11.65364,1.34532 5.67667,2.37187 5.93771,8.31256 0.48908,11.13016 l -2.93343,1.51693 3.03877,5.2221 c 4.20722,7.2301 4.22729,7.2567 6.46982,8.57672 1.77073,1.0423 1.59878,1.14677 -1.5,0.91132 -3.16529,-0.2405 -3.88253,-0.91137 -7.5,-7.01511 -3.41971,-5.77007 -4.40587,-6.7493 -6.79772,-6.75 -2.79525,-8.3e-4 -2.79745,0.005 -2.5,6.20783 0.27276,5.68816 0.5073,6.25857 2.79772,6.80403 1.375,0.32745 -0.58668,0.59918 -4.35929,0.60384 -4.41208,0.005 -6.10675,-0.26991 -4.75,-0.7718 z m 15.65474,-16.29927 c 4.75751,-4.7575 1.56743,-10.92761 -5.35242,-10.35243 l -3.69303,0.30697 -0.29772,6.25 -0.29771,6.25 h 3.59317 c 2.48164,0 4.35247,-0.7593 6.04771,-2.45454 z m 16.23204,15.89784 c 2.07259,-1.4517 2.22251,-2.31512 2.22251,-12.8 0,-7.41145 -0.40897,-11.65227 -1.2,-12.4433 -0.93333,-0.93333 -0.33333,-1.2 2.7,-1.2 3.03333,0 3.63333,0.26667 2.7,1.2 -0.79103,0.79103 -1.2,5.03185 -1.2,12.4433 0,10.48488 0.14992,11.3483 2.22251,12.8 2.11813,1.4836 1.94332,1.5567 -3.72251,1.5567 -5.66583,0 -5.84064,-0.0731 -3.72251,-1.5567 z M 296,58.707587 c 2.43568,-1.23047 2.50722,-1.5774 2.78078,-13.48526 l 0.28078,-12.2223 h -5.06217 c -3.57721,0 -5.23101,0.44002 -5.63776,1.5 -0.31659,0.825 -0.96296,1.5 -1.43639,1.5 -0.47344,0 -0.50928,-0.95023 -0.0796,-2.11163 0.73704,-1.99239 1.52571,-2.11944 13.96692,-2.25 l 13.18573,-0.13837 -0.0625,3 c -0.0583,2.79678 -0.1238,2.84758 -0.96692,0.75 -0.76995,-1.91544 -1.65268,-2.25 -5.93665,-2.25 H 302 v 12.53223 c 0,12.06174 0.0845,12.56617 2.25,13.43661 1.69663,0.68196 0.65138,0.91635 -4.25,0.95304 -5.87285,0.0439 -6.25879,-0.0732 -4,-1.21432 z m 24,-0.70756 c 1.73507,-1.73507 2,-3.33333 2,-12.06574 0,-5.53616 -0.46583,-10.93616 -1.03518,-12 -0.93758,-1.75187 -0.68299,-1.93426 2.7,-1.93426 2.90514,0 3.46851,0.26667 2.53518,1.2 -0.79103,0.79103 -1.2,5.03185 -1.2,12.4433 0,10.48488 0.14992,11.3483 2.22251,12.8 2.12228,1.4865 1.96444,1.5567 -3.5,1.5567 H 318 Z m 17,1.27111 c -1.90179,-0.72394 -2.96513,-2.30725 -2.98469,-4.44418 -0.0117,-1.27375 0.68237,-0.9754 2.90777,1.25 4.93851,4.93851 13.07692,3.22663 13.07692,-2.75068 0,-2.35748 -1.74341,-3.98522 -8.24007,-7.69338 -4.94458,-2.82227 -6.47469,-5.6489 -5.39231,-9.96143 0.73303,-2.92062 4.47323,-4.67144 9.97943,-4.67144 4.62615,0 6.65295,1.32061 6.65295,4.33486 0,1.68798 -0.26445,1.59867 -2.07258,-0.7 -1.57676,-2.00453 -2.96428,-2.63486 -5.8,-2.63486 -4.22017,0 -6.12742,1.41471 -6.12742,4.54502 0,2.47747 1.67738,4.07684 8.14553,7.76671 7.41099,4.22774 8.29111,11.13708 1.83476,14.40382 -2.5251,1.27764 -9.26263,1.59008 -11.98029,0.55556 z m 24,-1.27111 c 1.71736,-1.71736 2,-3.33333 2,-11.4349 0,-5.18919 -0.43886,-10.58919 -0.97525,-12 -0.94117,-2.47546 -0.84507,-2.56234 2.75,-2.48615 2.04889,0.0434 3.16275,0.30592 2.47525,0.58333 -0.78408,0.31639 -1.25,2.5234 -1.25,5.92106 v 5.41666 h 9 9 v -5.41666 c 0,-3.39766 -0.46592,-5.60467 -1.25,-5.92106 -0.6875,-0.27741 0.325,-0.5407 2.25,-0.58508 l 3.5,-0.0807 -0.30575,13.01335 c -0.30041,12.78588 -0.26545,13.02952 2,13.93837 1.80325,0.72342 0.99815,0.9322 -3.69425,0.95799 -4.54254,0.025 -5.57491,-0.21462 -4.25,-0.98631 1.3564,-0.79003 1.75,-2.35759 1.75,-6.96959 v -5.95031 h -9 -9 v 6.03223 c 0,5.321 0.26528,6.13885 2.25,6.93661 1.74568,0.70168 0.96118,0.9186 -3.5,0.96778 l -5.75,0.0634 z"
     style="display:inline;fill:#000000" />
</svg>
