<?xml version="1.0" encoding="UTF-8" standalone="no"?>
<svg
   xmlns:dc="http://purl.org/dc/elements/1.1/"
   xmlns:cc="http://creativecommons.org/ns#"
   xmlns:rdf="http://www.w3.org/1999/02/22-rdf-syntax-ns#"
   xmlns:svg="http://www.w3.org/2000/svg"
   xmlns="http://www.w3.org/2000/svg"
   id="svg8"
   version="1.1"
   viewBox="0 0 62.434109 57.457485"
   height="57.457485mm"
   width="62.434109mm">
  <defs
     id="defs2" />
  <metadata
     id="metadata5">
    <rdf:RDF>
      <cc:Work
         rdf:about="">
        <dc:format>image/svg+xml</dc:format>
        <dc:type
           rdf:resource="http://purl.org/dc/dcmitype/StillImage" />
        <dc:title></dc:title>
      </cc:Work>
    </rdf:RDF>
  </metadata>
  <g
     transform="translate(-93.342352,-62.696989)"
     id="layer1">
    <g
       transform="translate(-1.1339286,-53.105655)"
       id="g102">
      <path
         id="path122"
         d="m 99.993741,170.53318 c -1.582867,-0.73706 -2.852111,-2.17077 -3.273502,-3.69768 -0.216721,-0.7853 -0.280545,-6.0633 -0.22495,-18.60242 0.07762,-17.50605 0.07762,-17.50605 0.878757,-18.64573 1.526808,-2.17201 2.640294,-2.70737 6.027084,-2.89784 2.96136,-0.16654 2.96136,-0.16654 11.4965,-4.58599 9.73694,-5.04173 9.79401,-5.05787 10.8297,-3.06334 2.14615,4.13306 1.41205,4.00663 6.84472,1.17886 6.58481,-3.42747 5.98392,-3.56303 8.84773,1.99614 2.24896,4.36562 2.24896,4.36562 4.29704,4.53203 4.54606,0.36936 5.82535,2.21703 6.02171,8.69713 0.13229,4.36563 0.13229,4.36563 1.4075,4.51213 1.79092,0.20575 1.75896,0.0425 1.76345,9.00676 0.005,9.17628 0.052,8.9707 -2.0673,8.9707 -1.10365,0 -1.10365,0 -1.10623,4.16719 -0.003,5.58891 -0.67802,7.13982 -3.70158,8.51058 -2.01191,0.91211 -46.06784,0.84011 -48.040629,-0.0785 z m 47.837169,-3.27706 c 0.86491,-0.86426 0.86491,-0.86426 0.94927,-5.09323 0.0844,-4.22896 0.0844,-4.22896 -5.82084,-4.23155 -5.6483,-0.002 -5.96355,-0.0298 -7.24685,-0.62732 -2.851,-1.32756 -3.55312,-2.98073 -3.55312,-8.36593 0,-4.28418 0.2415,-5.38951 1.49839,-6.85791 1.69973,-1.98575 2.35232,-2.13792 9.16847,-2.13792 6.00189,0 6.00189,0 6.00014,-4.0349 -0.002,-4.36549 -0.21498,-5.13738 -1.63596,-5.92591 -0.99252,-0.55076 -45.19173,-0.50929 -46.26054,0.0434 -1.482863,0.76682 -1.59645,1.35532 -1.517763,7.86355 0.07122,5.89031 0.07122,5.89031 2.452463,5.87608 2.26148,-0.0135 2.49075,-0.0701 4.55819,-1.12448 2.17694,-1.11025 2.17694,-1.11025 5.48196,-1.11025 2.81482,0 3.45904,-0.0803 4.34343,-0.54125 1.16685,-0.6082 2.10436,-0.50785 2.83897,0.30388 1.50225,1.65997 -0.90553,4.37062 -2.68604,3.02391 -0.38731,-0.29295 -1.33857,-0.39053 -3.86895,-0.39688 -3.35536,-0.008 -3.35536,-0.008 -5.80163,1.18222 -2.36492,1.15103 -2.52829,1.19062 -4.91287,1.19062 -2.454649,0 -2.466598,0.003 -2.466598,0.66146 0,0.66146 0,0.66146 10.781768,0.65304 9.0611,-0.007 10.86374,-0.0704 11.29536,-0.39687 1.15712,-0.8752 3.32287,0.0628 3.32287,1.43914 0,1.83211 -1.51558,2.75727 -3.24141,1.97868 -1.02377,-0.46187 -1.88429,-0.49899 -11.56618,-0.49899 -10.460116,0 -10.460116,0 -10.543836,0.7276 -0.08372,0.72761 -0.08372,0.72761 1.913666,0.72761 1.82341,0 2.21345,0.1037 4.47786,1.19062 2.47782,1.18936 2.48354,1.19062 5.36237,1.18221 2.11386,-0.006 3.01878,-0.11194 3.3955,-0.39687 2.07765,-1.57146 4.50233,1.48246 2.50881,3.15989 -0.97761,0.82261 -1.42612,0.84968 -2.56578,0.15482 -0.73311,-0.44697 -1.33388,-0.52817 -3.90789,-0.52817 -3.0416,0 -3.0416,0 -5.41227,-1.19063 -2.08464,-1.04697 -2.57882,-1.19062 -4.09576,-1.19062 -1.725078,0 -1.725078,0 -1.725078,6.06511 0,6.58909 0.158048,7.23072 1.962798,7.96834 0.30291,0.12381 10.69856,0.20185 23.10145,0.17343 22.55071,-0.0517 22.55071,-0.0517 23.41563,-0.91594 z m 4.17221,-18.31803 c 0,-6.08541 0,-6.08541 -7.28919,-6.08541 -9.96862,0 -9.73734,-0.1531 -9.59671,6.35252 0.12881,5.95866 -0.17143,5.77863 9.676,5.80154 7.2099,0.0168 7.2099,0.0168 7.2099,-6.06865 z m -13.51411,1.87244 c -1.03506,-1.03506 -1.0709,-2.5366 -0.0884,-3.70422 1.33342,-1.58467 4.11261,-0.85123 4.49483,1.1862 0.49821,2.65567 -2.53528,4.38914 -4.40641,2.51802 z m -15.7992,-25.51022 c 2.30441,-1.26495 2.30441,-1.26495 1.59853,-2.70421 -0.38823,-0.79159 -0.80647,-1.43926 -0.92942,-1.43926 -0.48711,0 -10.24955,5.07253 -10.24955,5.32563 0,0.17587 1.27372,0.23774 3.63802,0.1767 3.63802,-0.0939 3.63802,-0.0939 5.94242,-1.35886 z m 17.48227,1.24938 c 0.20203,-0.20203 -2.50223,-5.37996 -2.81368,-5.38744 -0.42385,-0.0102 -10.22612,5.08971 -10.22612,5.32041 0,0.25796 12.78316,0.32367 13.0398,0.067 z"
         style="fill:#e7e7e8;stroke-width:0.26458335" />
      <path
         id="path120"
         d="m 99.848351,170.15921 c -3.113589,-1.62656 -2.999655,-0.85963 -3.090489,-20.8033 -0.08508,-18.6805 -0.08548,-18.67408 1.262454,-20.30395 1.258869,-1.52218 2.615044,-2.03376 5.759844,-2.17272 2.06351,-0.0912 2.91493,-0.24305 3.57187,-0.63715 0.4744,-0.28458 4.4162,-2.32595 8.75956,-4.53636 9.10721,-4.63482 8.34896,-4.53662 10.09465,-1.30732 0.58208,1.07677 1.15448,2.10436 1.272,2.28352 0.15572,0.23741 1.61437,-0.39649 5.37905,-2.33764 6.23018,-3.21241 5.58086,-3.36419 8.298,1.93968 2.40838,4.70115 2.10508,4.39419 4.62042,4.67627 4.44244,0.4982 5.69824,2.43048 5.69824,8.76782 0,4.56846 -0.0338,4.47878 1.68851,4.47878 1.49761,0 1.48649,-0.0655 1.48649,8.75178 0,9.02547 0.0859,8.62043 -1.85728,8.75868 -1.18543,0.0843 -1.18543,0.0843 -1.31772,4.60437 -0.15932,5.44349 -0.58308,6.50014 -3.14315,7.83754 -2.23005,1.16498 -46.25241,1.16498 -48.482449,0 z M 147.2243,168.0338 c 1.63539,-0.87707 1.8874,-1.75063 1.8069,-6.26341 -0.0708,-3.96875 -0.0708,-3.96875 -6.2885,-4.10105 -9.5749,-0.20372 -10.45601,-1.01139 -10.2769,-9.42033 0.10316,-4.84312 0.42033,-5.70181 2.6521,-7.18001 1.10194,-0.72986 1.10194,-0.72986 7.47222,-0.86216 6.37029,-0.13229 6.37029,-0.13229 6.44346,-4.02658 0.0836,-4.45016 -0.1601,-5.42055 -1.5786,-6.28538 -1.37479,-0.83819 -45.35602,-0.83819 -46.73081,0 -1.486535,0.90631 -1.637721,1.66208 -1.637721,8.1868 0,5.82933 0,5.82933 2.627751,5.82933 2.57558,0 2.67633,-0.0236 5.07403,-1.19062 2.44627,-1.19063 2.44627,-1.19063 5.68518,-1.19063 2.58061,0 3.40022,-0.0926 4.03259,-0.45551 1.58923,-0.91209 3.4065,0.62866 2.63646,2.23529 -0.49506,1.0329 -1.62544,1.37264 -2.63646,0.7924 -0.63425,-0.36401 -1.4548,-0.45551 -4.08482,-0.45551 -3.29114,0 -3.29114,0 -5.66181,1.19062 -2.33791,1.17417 -2.40733,1.19063 -5.0218,1.19063 -2.651121,0 -2.651121,0 -2.651121,0.92604 0,0.92604 0,0.92604 10.929641,0.92604 9.20041,0 11.01089,-0.0615 11.44323,-0.38846 1.85972,-1.40663 4.16113,1.31013 2.32999,2.75051 -0.82325,0.64757 -1.39424,0.69112 -2.09656,0.15991 -0.43214,-0.32685 -2.26822,-0.3898 -11.57671,-0.39688 -11.063118,-0.008 -11.063118,-0.008 -10.980209,0.85148 0.08291,0.8599 0.08291,0.8599 2.331869,1.00252 1.95729,0.12412 2.53881,0.28712 4.48392,1.25677 2.51255,1.25253 7.35113,1.65147 8.59738,0.70886 1.87763,-1.42017 4.06935,1.00577 2.40885,2.66627 -0.78555,0.78556 -1.34619,0.81373 -2.39328,0.12027 -0.67782,-0.4489 -1.24515,-0.52593 -3.88452,-0.52742 -3.09078,-0.002 -3.09078,-0.002 -5.55625,-1.2024 -2.26225,-1.10168 -2.60724,-1.19438 -4.18527,-1.12448 -1.719789,0.0762 -1.719789,0.0762 -1.789604,6.0293 -0.07858,6.70039 0.05458,7.30853 1.805924,8.24779 1.39797,0.74974 44.87148,0.74974 46.26945,0 z m 5.0434,-19.09571 c 0,-6.35 0,-6.35 -7.47448,-6.34901 -10.06611,0.001 -9.98837,-0.0485 -9.98761,6.40666 7.9e-4,6.28952 0.004,6.29138 10.1199,6.29194 7.34219,4.1e-4 7.34219,4.1e-4 7.34219,-6.34959 z m -13.41402,1.91235 c -1.86241,-1.46354 -0.89431,-4.2936 1.46873,-4.2936 1.15103,0 1.59882,0.23726 2.0332,1.07726 1.21532,2.35018 -1.46799,4.81467 -3.50193,3.21634 z m -16.08702,-25.32156 c 1.30968,-0.70783 2.41881,-1.31421 2.46472,-1.34752 0.18954,-0.1375 -1.56961,-3.2891 -1.83591,-3.2891 -0.15928,0 -2.79897,1.27638 -5.86597,2.8364 -6.43431,3.27279 -6.43292,3.26666 -0.71597,3.1562 3.57188,-0.069 3.57188,-0.069 5.95313,-1.35598 z m 17.7241,1.14359 c 0.2274,-0.22805 -2.74257,-5.78021 -3.09195,-5.78021 -0.14851,0 -2.78713,1.27992 -5.86359,2.84427 -5.35002,2.72043 -5.55324,2.85176 -4.66752,3.01632 1.18825,0.22077 13.3946,0.14875 13.62306,-0.0804 z"
         style="fill:#cccccd;stroke-width:0.26458335" />
      <path
         id="path118"
         d="m 101.33541,170.65472 c -1.823933,-0.45233 -3.071829,-1.44835 -4.003949,-3.19579 -0.608164,-1.14012 -0.91505,-33.18547 -0.344141,-35.93552 0.615169,-2.96326 3.07298,-4.54573 7.06016,-4.54573 2.12151,0 2.12151,0 10.91031,-4.51984 6.243,-3.2106 8.95344,-4.47641 9.35717,-4.36992 0.38233,0.10085 0.98221,0.93073 1.83277,2.53546 0.69542,1.31205 1.39965,2.38555 1.56494,2.38555 0.1653,0 2.49742,-1.14053 5.18249,-2.53451 3.41301,-1.77189 5.05671,-2.49065 5.46274,-2.38874 0.43228,0.1085 1.15167,1.24702 2.81352,4.45274 2.23274,4.30697 2.23274,4.30697 4.08482,4.46799 4.82154,0.4192 6.0357,2.14432 6.17148,8.76866 0.0908,4.43177 0.0908,4.43177 1.24415,4.43177 1.9731,0 1.97708,0.0177 1.97708,8.79013 0,8.66667 -0.001,8.67237 -2.09437,8.67237 -1.03603,0 -1.03603,0 -1.12686,4.43178 -0.11348,5.5366 -0.58558,6.6734 -3.39335,8.17113 -0.97633,0.52079 -44.69733,0.87887 -46.69896,0.38247 z m 46.06809,-2.55068 c 1.72486,-1.28815 1.82149,-1.6146 1.82149,-6.15389 0,-4.14851 0,-4.14851 -6.21771,-4.28081 -6.74137,-0.14343 -7.44542,-0.29316 -8.89874,-1.89248 -2.12021,-2.33321 -2.41149,-10.56599 -0.46416,-13.11907 1.67101,-2.19081 2.09313,-2.30314 9.21041,-2.45095 6.3702,-0.13229 6.3702,-0.13229 6.3702,-4.23333 0,-4.77802 -0.31482,-5.67753 -2.25939,-6.4556 -1.77221,-0.70909 -44.36699,-0.62508 -45.94338,0.0906 -1.85037,0.8401 -1.935771,1.20787 -1.935771,8.33622 0,6.23084 0,6.23084 2.518831,6.23084 2.45768,0 2.57638,-0.0289 4.8895,-1.19062 2.37068,-1.19063 2.37068,-1.19063 5.76498,-1.19063 2.57488,0 3.51829,-0.0938 3.90789,-0.38846 1.20444,-0.91099 3.02713,-0.19916 3.02713,1.18221 0,1.38011 -1.38379,2.03637 -2.74993,1.30417 -1.94942,-1.04483 -6.4659,-0.74535 -9.17031,0.60807 -2.12329,1.06259 -2.38039,1.12538 -5.14538,1.25677 -2.910419,0.13829 -2.910419,0.13829 -2.910419,1.19662 0,1.05833 0,1.05833 10.654129,1.12748 10.2161,0.0663 10.6969,0.0473 11.69442,-0.46156 1.72926,-0.8822 3.23094,0.18008 2.60425,1.84224 -0.42254,1.12069 -1.72922,1.44232 -2.74338,0.67525 -0.43189,-0.32666 -2.25207,-0.38979 -11.44286,-0.39687 -10.929277,-0.008 -10.929277,-0.008 -10.847918,1.11606 0.08136,1.12448 0.08136,1.12448 2.462608,1.25957 2.09029,0.11859 2.61483,0.25599 4.29287,1.12448 2.28291,1.18155 7.36908,1.48461 9.01945,0.53743 0.98727,-0.56661 2.03871,-0.18136 2.44879,0.89724 0.56096,1.47542 -1.36872,2.76733 -2.71988,1.82094 -0.45403,-0.31801 -1.30364,-0.41414 -3.66045,-0.41414 -3.06919,0 -3.06919,0 -5.51546,-1.19062 -2.22896,-1.08486 -2.62094,-1.19063 -4.41256,-1.19063 -1.966301,0 -1.966301,0 -1.966301,6.35389 0,6.35389 0,6.35389 0.891002,7.32614 1.258549,1.37331 0.772449,1.348 25.085109,1.30614 21.38463,-0.0368 21.61812,-0.0429 22.34094,-0.58272 z m 4.73191,-19.16595 c 0,-6.48229 0,-6.48229 -7.01146,-6.55583 -10.34933,-0.10855 -10.31616,-0.1298 -10.31776,6.61277 -0.002,6.5116 0.0358,6.53499 10.31776,6.46981 7.01146,-0.0445 7.01146,-0.0445 7.01146,-6.52675 z m -13.02363,1.85931 c -2.19145,-1.33618 -0.78464,-4.70565 1.70765,-4.09001 2.01081,0.4967 2.39707,3.28596 0.58481,4.22312 -0.98076,0.50717 -1.26988,0.49038 -2.29246,-0.13311 z M 122.8328,125.63971 c 1.34607,-0.73128 2.4474,-1.44717 2.4474,-1.59087 0,-0.59081 -1.63637,-3.4489 -1.93063,-3.37203 -0.85672,0.2238 -11.56312,5.81889 -11.56312,6.04281 0,0.15727 1.67913,0.25643 4.29948,0.25388 4.29948,-0.004 4.29948,-0.004 6.74687,-1.33379 z m 17.89249,1.12684 c 0.20794,-0.33646 -3.01693,-6.17862 -3.36069,-6.08822 -0.78161,0.20554 -11.55523,5.86323 -11.55523,6.06814 0,0.28925 14.7373,0.30908 14.91592,0.0201 z"
         style="fill:#bebec0;stroke-width:0.26458335" />
      <path
         id="path116"
         d="m 100.27707,170.19502 c -1.16303,-0.61205 -2.227866,-1.67482 -2.807784,-2.80234 -0.491423,-0.95547 -0.50771,-1.65435 -0.43879,-18.82893 0.07158,-17.83663 0.07158,-17.83663 0.867749,-18.96929 1.216168,-1.73016 2.683615,-2.3562 6.125155,-2.61311 2.86826,-0.21411 2.86826,-0.21411 11.44459,-4.64415 6.57168,-3.39455 8.67439,-4.36908 8.99583,-4.16925 0.23073,0.14344 0.95529,1.28965 1.61013,2.54714 0.82356,1.5815 1.33797,2.28751 1.66856,2.2901 0.26286,0.002 2.71621,-1.15621 5.45189,-2.57392 5.93056,-3.07339 5.12426,-3.31122 7.99126,2.35722 2.11881,4.18919 2.11881,4.18919 3.14782,4.18919 5.23945,0 6.87589,2.0736 6.87589,8.71275 0,4.68603 -0.0522,4.55157 1.85208,4.77413 1.19062,0.13916 1.19062,0.13916 1.19062,8.47353 0,8.33438 0,8.33438 -1.18543,8.41872 -1.85881,0.13224 -1.85727,0.12823 -1.85727,4.85339 0,5.25833 -0.55642,6.58244 -3.3603,7.99665 -1.27498,0.64306 -46.34886,0.63186 -47.572,-0.0118 z m 46.86262,-1.84267 c 1.83381,-0.8702 2.0749,-1.56901 2.17019,-6.29018 0.066,-3.26976 0.007,-4.25547 -0.26458,-4.42772 -0.19221,-0.12187 -2.97524,-0.22341 -6.18451,-0.22564 -6.74753,-0.005 -7.78435,-0.27684 -9.28245,-2.43654 -1.11014,-1.60042 -1.3143,-9.64702 -0.29406,-11.59043 1.37176,-2.61302 2.31792,-2.90985 9.28988,-2.91446 3.36692,-0.002 6.27893,-0.10377 6.47114,-0.22564 0.6388,-0.40504 0.32283,-8.53451 -0.36828,-9.47536 -1.29194,-1.7588 0.005,-1.67117 -24.74676,-1.67163 -27.959668,-5.1e-4 -25.1594,-1.0063 -25.044495,8.99543 0.06839,5.95312 0.06839,5.95312 2.744095,6.02812 2.67571,0.075 2.67571,0.075 5.14018,-1.12448 2.46446,-1.19948 2.46446,-1.19948 5.70337,-1.19948 2.53173,0 3.4057,-0.0957 4.00282,-0.43842 0.97858,-0.56163 2.10454,-0.30187 2.50544,0.57801 0.69019,1.51481 -0.97211,2.76635 -2.50544,1.88634 -1.72233,-0.98848 -6.87132,-0.61858 -9.46628,0.68006 -2.12328,1.06259 -2.38039,1.12538 -5.14538,1.25677 -2.910413,0.13829 -2.910413,0.13829 -2.910413,1.19662 0,1.05833 0,1.05833 10.955973,1.12745 9.40975,0.0594 11.04209,0.0127 11.56621,-0.33073 1.24278,-0.8143 2.74553,-0.18941 2.74553,1.14168 0,1.39615 -1.38705,2.06205 -2.56971,1.23368 -0.4911,-0.34398 -2.11532,-0.39015 -11.63439,-0.33073 -11.063613,0.0691 -11.063613,0.0691 -11.063613,1.1274 0,1.05833 0,1.05833 2.381253,1.19737 2.10505,0.12292 2.65037,0.26869 4.70144,1.25677 2.60695,1.25588 7.2769,1.64674 8.51215,0.71245 1.24729,-0.94341 2.88559,-0.17254 2.74184,1.29011 -0.13346,1.35805 -1.18954,1.76307 -2.66966,1.02387 -0.99865,-0.49876 -1.60811,-0.58578 -4.1024,-0.58578 -2.92951,0 -2.92951,0 -5.37578,-1.19062 -2.09582,-1.02006 -2.68128,-1.19063 -4.08672,-1.19063 -2.349983,0 -2.275325,-0.23395 -2.182254,6.83831 0.08945,6.79734 0.136995,6.98157 2.068894,8.01766 1.32334,0.70972 44.7089,0.76641 46.19677,0.0604 z m 5.2603,-19.41426 c 0,-6.48229 0,-6.48229 -7.56173,-6.55242 -10.29443,-0.0955 -10.37572,-0.041 -10.24108,6.8648 0.12365,6.34224 0.10698,6.33224 10.39448,6.23787 7.40833,-0.0679 7.40833,-0.0679 7.40833,-6.55025 z m -13.54951,1.52136 c -0.80174,-0.87596 -0.95367,-1.65096 -0.49682,-2.5344 1.02375,-1.97972 4.12446,-1.24599 4.12446,0.97598 0,1.85428 -2.40945,2.88937 -3.62764,1.55842 z m -16.10661,-24.70317 c 1.32222,-0.67177 2.50045,-1.30992 2.6183,-1.41811 0.30582,-0.28079 -1.44297,-3.71049 -1.89197,-3.71049 -0.52886,0 -11.94833,5.85515 -11.94833,6.12631 0,0.12303 1.98404,0.22369 4.40898,0.22369 4.40899,0 4.40899,0 6.81302,-1.2214 z m 18.15866,1.02296 c 0.0313,-0.52225 -3.10125,-6.14335 -3.42579,-6.14718 -0.49279,-0.006 -11.93196,5.88414 -11.93196,6.14369 0,0.26177 15.34203,0.26526 15.35775,0.003 z"
         style="fill:#adadaf;stroke-width:0.26458335" />
      <path
         id="path114"
         d="m 101.14069,170.37342 c -1.372921,-0.41897 -2.590233,-1.37669 -3.313353,-2.60679 -0.725263,-1.23374 -0.725263,-1.23374 -0.808652,-18.03479 -0.09016,-18.16611 -0.04969,-18.81567 1.272365,-20.41955 1.188689,-1.44209 2.37918,-1.88778 5.5579,-2.08076 2.77812,-0.16865 2.77812,-0.16865 11.32464,-4.59364 4.70059,-2.43374 8.74871,-4.38633 8.99584,-4.33908 0.25237,0.0482 1.02916,1.15502 1.77223,2.5251 0.7276,1.34156 1.48927,2.44154 1.6926,2.4444 0.20333,0.003 2.61287,-1.15566 5.35454,-2.57449 4.07892,-2.11086 5.06959,-2.5269 5.45114,-2.28924 0.25647,0.15975 1.35927,2.01768 2.45068,4.12873 2.50041,4.83641 2.38959,4.70895 4.09395,4.70895 4.61029,0 6.02955,1.96057 6.2248,8.59896 0.13229,4.49792 0.13229,4.49792 1.32291,4.57648 1.88022,0.12406 1.8526,-0.003 1.84803,8.50482 -0.004,8.38842 0.0216,8.26296 -1.76345,8.46803 -1.2752,0.1465 -1.2752,0.1465 -1.40749,4.64442 -0.15594,5.30182 -0.55416,6.38169 -2.85131,7.73203 -1.24974,0.73464 -1.24974,0.73464 -23.87161,0.78098 -12.44203,0.0255 -22.94763,-0.0531 -23.34576,-0.17456 z m 46.40811,-2.0546 c 1.52878,-0.89977 1.88439,-1.89189 2.01952,-5.63421 0.20656,-5.72016 0.80273,-5.23168 -6.50365,-5.32876 -6.2751,-0.0834 -6.2751,-0.0834 -7.52483,-0.81802 -2.18362,-1.28359 -2.70066,-2.53453 -2.81269,-6.80496 -0.12325,-4.69834 0.17799,-6.05239 1.68083,-7.55523 1.56579,-1.56579 2.28397,-1.70303 8.92072,-1.70474 6.88383,-0.002 6.29285,0.45388 6.21637,-4.79283 -0.0627,-4.30407 -0.35449,-5.18387 -2.04923,-6.17949 -1.35001,-0.7931 -45.32166,-0.85202 -46.76745,-0.0627 -1.82861,0.99837 -1.917909,1.4114 -1.842022,8.51997 0.06779,6.35 0.06779,6.35 2.582462,6.42494 2.50709,0.0747 2.52209,0.0713 4.97901,-1.12448 2.46435,-1.19942 2.46435,-1.19942 5.98575,-1.19942 2.80735,0 3.58819,-0.0805 3.85078,-0.39688 0.82093,-0.98916 2.64583,-0.31815 2.64583,0.97286 0,1.28777 -1.13714,1.79167 -2.40133,1.0641 -1.99914,-1.15056 -6.44849,-0.86467 -9.47606,0.60888 -2.36648,1.15179 -2.52695,1.19062 -4.92009,1.19062 -3.192553,0 -3.310854,0.052 -3.310854,1.45521 0,1.53155 -0.591633,1.45521 11.276974,1.45521 10.00158,0 10.48457,-0.0228 11.50278,-0.54222 1.24167,-0.63346 1.88889,-0.50886 2.32465,0.44751 0.6677,1.46546 -0.98328,2.50793 -2.44993,1.54695 -0.52412,-0.34342 -2.15646,-0.39009 -11.56621,-0.33073 -10.955973,0.0691 -10.955973,0.0691 -11.035215,1.2916 -0.09376,1.44644 0.09474,1.54631 2.929385,1.55203 1.55931,0.003 2.06494,0.14094 3.89673,1.06194 2.44615,1.2299 7.67149,1.59156 9.13551,0.63229 1.41497,-0.92712 3.01898,0.53 2.11022,1.91697 -0.47531,0.7254 -1.73173,0.85321 -2.24989,0.22887 -0.26037,-0.31373 -1.01662,-0.39688 -3.60956,-0.39688 -3.28018,0 -3.28018,0 -5.67244,-1.20146 -2.29844,-1.15435 -2.47202,-1.19844 -4.42648,-1.12448 -2.034233,0.077 -2.034233,0.077 -2.105246,6.39418 -0.07848,6.98121 -0.0221,7.26164 1.686306,8.3879 1.14182,0.75275 45.70435,0.79583 46.97935,0.0454 z m 4.38817,-12.685 c 0.79017,-0.18385 0.96058,-13.11353 0.1768,-13.41429 -0.23019,-0.0883 -3.53417,-0.15799 -7.34219,-0.15479 -10.09341,0.008 -10.22833,0.0984 -10.22998,6.82035 -0.002,6.80149 0.12192,6.88291 10.45006,6.88559 3.4925,8e-4 6.61789,-0.0607 6.94531,-0.13686 z m -12.50156,-4.88458 c -1.35068,-0.73877 -1.59583,-2.22375 -0.54119,-3.27838 1.04689,-1.0469 2.53996,-0.84237 3.20242,0.43868 0.91946,1.77804 -0.95174,3.77472 -2.66123,2.8397 z m -16.54811,-24.8887 c 1.46162,-0.75995 2.65748,-1.53726 2.65748,-1.72734 0,-0.46812 -1.50594,-3.42389 -1.85405,-3.63904 -0.24438,-0.15103 -9.53947,4.35928 -11.83978,5.7451 -1.40526,0.84659 -0.79579,1.003 3.90822,1.003 4.47066,0 4.47066,0 7.12813,-1.38172 z m 18.13978,1.11039 c 0.16714,-0.27045 -2.53147,-5.62224 -3.17997,-6.30639 -0.33393,-0.35229 -8.63986,3.56729 -12.63737,5.96358 -0.11152,0.0669 -0.13426,0.23237 -0.0505,0.36784 0.21609,0.34965 15.65135,0.3253 15.86787,-0.025 z"
         style="fill:#8f8f92;stroke-width:0.26458335" />
      <path
         id="path112"
         d="m 100.12025,169.75372 c -2.854684,-1.5071 -2.743713,-0.71424 -2.833242,-20.24294 -0.05438,-11.86194 0.01081,-17.68471 0.205486,-18.35399 0.72308,-2.48587 2.667426,-3.63538 6.163906,-3.64414 2.32099,-0.006 2.32099,-0.006 10.05417,-3.95356 4.25324,-2.17127 8.32608,-4.24673 9.05075,-4.61215 1.60883,-0.81124 1.68723,-0.7612 3.04805,1.94532 1.53908,3.06108 1.0324,3.05858 7.07404,0.0349 2.89782,-1.45029 5.38648,-2.55746 5.53035,-2.46037 0.14387,0.0971 1.18531,1.96246 2.3143,4.14527 2.42524,4.68899 2.61753,4.89279 4.62364,4.9006 4.28243,0.0167 5.59308,1.98977 5.59308,8.41997 0,4.72291 -0.002,4.71911 1.85728,4.85134 1.18543,0.0843 1.18543,0.0843 1.18543,8.15413 0,8.0698 0,8.0698 -1.23569,8.14958 -1.73375,0.11194 -1.76071,0.18839 -1.85499,5.26151 -0.0968,5.20922 -0.45631,6.1472 -2.83791,7.40454 -1.83905,0.9709 -46.09961,0.9709 -47.93865,0 z m 47.38388,-1.26765 c 1.81903,-1.02235 2.11774,-1.95789 2.11774,-6.63264 0,-2.8192 -0.098,-4.17627 -0.3175,-4.39575 -0.22825,-0.22825 -2.00159,-0.3175 -6.30839,-0.3175 -6.87255,0 -7.58484,-0.18416 -9.11682,-2.35709 -0.78855,-1.11846 -0.79432,-1.15303 -0.88067,-5.27136 -0.0949,-4.5236 0.0939,-5.62596 1.18558,-6.92331 1.45215,-1.72578 2.05095,-1.85241 8.75975,-1.85241 4.34737,0 6.13214,-0.0891 6.36055,-0.3175 0.63999,-0.64 0.41238,-8.36535 -0.28217,-9.57683 -1.2284,-2.14267 0.38899,-2.01192 -24.88851,-2.01192 -24.830125,0 -23.59123,-0.084 -24.854014,1.68627 -0.571846,0.80168 -0.590102,1.02782 -0.590102,7.30956 0,6.4823 0,6.4823 2.833326,6.55728 2.81285,0.0745 2.84725,0.0679 4.7625,-0.91112 1.88932,-0.96573 2.00882,-0.98975 5.78464,-1.16247 2.98421,-0.13652 4.01265,-0.27938 4.5511,-0.63218 0.80907,-0.53012 1.64716,-0.36057 2.06356,0.41749 0.63579,1.18798 -1.2743,2.45754 -2.13575,1.41955 -0.26279,-0.31665 -1.04608,-0.39688 -3.87473,-0.39688 -3.54535,0 -3.54535,0 -5.72229,1.11663 -2.09843,1.07637 -2.28667,1.12169 -5.21965,1.25678 -3.042706,0.14013 -3.042706,0.14013 -3.042706,1.46305 0,1.32292 0,1.32292 11.183566,1.39194 9.94187,0.0614 11.25625,0.0214 11.83818,-0.3599 1.41043,-0.92415 2.94193,0.5385 1.83944,1.75674 -0.59065,0.65266 -0.95097,0.65095 -2.03448,-0.01 -0.82761,-0.50459 -1.33954,-0.52822 -11.4652,-0.52917 -11.973736,-0.001 -11.582767,-0.0647 -11.445628,1.86069 0.08412,1.18105 0.08412,1.18105 2.597668,1.32563 2.2885,0.13164 2.70844,0.24415 4.69048,1.25677 2.17694,1.11219 2.17694,1.11219 5.32541,1.11219 2.47587,0 3.21884,-0.0848 3.47786,-0.39688 0.74506,-0.89774 2.38125,-0.32018 2.38125,0.84057 0,1.10128 -1.13594,1.56711 -2.2071,0.9051 -0.7772,-0.48034 -1.31207,-0.55504 -3.97405,-0.55504 -3.07598,0 -3.07598,0 -5.60707,-1.19063 -2.67279,-1.25728 -5.628658,-1.65958 -6.415118,-0.87312 -0.635371,0.63537 -0.427623,12.2468 0.240382,13.43536 1.267266,2.25479 -0.448684,2.10919 24.938386,2.11606 22.38548,0.006 22.45658,0.004 23.45058,-0.55428 z m 5.16044,-19.54798 c 0,-6.74687 0,-6.74687 -7.78604,-6.81709 -10.53776,-0.095 -10.6025,-0.0534 -10.6025,6.82105 0,6.77813 0.17734,6.89075 10.71563,6.80521 7.67291,-0.0623 7.67291,-0.0623 7.67291,-6.80917 z m -13.62604,1.32292 c -0.67562,-0.67563 -0.69995,-2.14468 -0.0453,-2.73712 1.15075,-1.04141 3.22031,-0.1622 3.22031,1.36808 0,1.58026 -2.07085,2.47319 -3.175,1.36904 z m 1.96548,-0.68036 c 0.49188,-0.49188 0.4961,-0.52725 0.14188,-1.18912 -0.15064,-0.28147 -0.48401,-0.51177 -0.74083,-0.51177 -1.03459,0 -1.49875,1.33009 -0.63892,1.83089 0.62742,0.36544 0.75593,0.35194 1.23787,-0.13 z m -18.14421,-23.5214 c 3.31324,-1.62608 3.29315,-1.59102 2.17741,-3.8013 -1.28095,-2.53754 -0.80722,-2.59359 -7.61259,0.90071 -8.42723,4.32706 -8.43162,4.3378 -1.77472,4.34413 4.26033,0.004 4.26033,0.004 7.2099,-1.44354 z m 17.87688,1.28699 c 0.64598,-0.24788 0.52667,-0.69089 -1.01264,-3.7602 -2.04046,-4.06854 -1.22453,-4.03892 -8.46817,-0.30744 -6.36811,3.28046 -6.84408,3.58631 -6.20801,3.98919 0.40714,0.25788 15.03069,0.33101 15.68882,0.0784 z"
         style="fill:#7e8082;stroke-width:0.26458335" />
      <path
         id="path110"
         d="m 100.80624,169.97174 c -1.338786,-0.47358 -2.914076,-2.13875 -3.284132,-3.47151 -0.397527,-1.43169 -0.393581,-33.70032 0.0043,-35.15693 0.72457,-2.65258 2.287093,-3.60295 6.322542,-3.84552 2.77812,-0.167 2.77812,-0.167 11.31643,-4.57688 4.69607,-2.42544 8.7063,-4.40989 8.91163,-4.40989 0.20533,0 0.98489,1.13109 1.73236,2.51354 0.83263,1.53997 1.52085,2.51354 1.7768,2.51354 0.22978,0 2.64231,-1.15155 5.36117,-2.55901 2.71887,-1.40746 5.11635,-2.49265 5.32774,-2.41153 0.21139,0.0811 1.37015,2.06574 2.57502,4.41026 2.38079,4.63272 2.16038,4.42269 4.82687,4.59967 4.01844,0.26673 5.08551,1.96298 5.26781,8.37393 0.13229,4.65231 0.13229,4.65231 1.4501,4.73544 0.72479,0.0457 1.40757,0.22432 1.5173,0.39688 0.36945,0.581 0.24842,15.42862 -0.12832,15.74128 -0.18475,0.15333 -0.86936,0.31674 -1.52135,0.36312 -1.18544,0.0843 -1.18544,0.0843 -1.31773,4.71455 -0.16407,5.74249 -0.9358,7.36429 -3.89537,8.18617 -1.67798,0.46598 -44.90429,0.35651 -46.24317,-0.11711 z m 46.89981,-1.45305 c 1.75308,-1.06886 1.92898,-1.70976 1.85213,-6.7483 -0.0686,-4.49792 -0.0686,-4.49792 -6.41861,-4.63021 -7.03057,-0.14647 -7.25914,-0.1975 -8.81313,-1.96739 -1.1922,-1.35784 -1.43479,-2.6176 -1.32492,-6.88029 0.17794,-6.90374 0.79339,-7.36948 9.98557,-7.55649 6.50248,-0.13229 6.50248,-0.13229 6.57467,-4.64826 0.0813,-5.08824 -0.1019,-5.69803 -2.05746,-6.84681 -0.91365,-0.53672 -1.20447,-0.54347 -23.41473,-0.54347 -28.383944,0 -25.532288,-1.03549 -25.532288,9.27124 0,7.40902 -0.314674,6.73605 3.149698,6.73605 2.20214,0 2.42958,-0.0569 4.75894,-1.19062 2.44627,-1.19063 2.44627,-1.19063 5.96767,-1.19063 2.68585,0 3.59392,-0.0874 3.82705,-0.36828 0.82586,-0.99511 2.40498,-0.58144 2.40498,0.63001 0,1.21187 -0.97826,1.58194 -2.19459,0.83021 -1.84058,-1.13754 -6.41798,-0.8324 -9.41822,0.62785 -2.37476,1.15582 -2.51972,1.19063 -4.95912,1.19063 -3.169541,0 -3.536408,0.18005 -3.536408,1.73565 0,1.75312 -0.115025,1.73733 12.018878,1.64891 10.06904,-0.0734 10.64591,-0.10392 11.45519,-0.60644 0.85219,-0.52916 0.85219,-0.52916 1.43664,0.0549 1.25027,1.24951 -0.55786,2.62149 -2.00867,1.52416 -0.57852,-0.43757 -21.911528,-0.58904 -22.587461,-0.16038 -0.229607,0.14561 -0.319058,0.65859 -0.264584,1.51731 0.0823,1.29732 0.0823,1.29732 2.463545,1.44322 2.12568,0.13025 2.6149,0.26513 4.55819,1.25677 2.17694,1.11087 2.17694,1.11087 5.43124,1.11087 2.55043,0 3.38458,-0.0913 3.85671,-0.42195 1.2038,-0.84318 2.57341,0.2156 1.90192,1.47029 -0.34564,0.64583 -1.6325,0.73212 -2.12201,0.14228 -0.26037,-0.31372 -1.01662,-0.39687 -3.60956,-0.39687 -3.28018,0 -3.28018,0 -5.67167,-1.20108 -2.32821,-1.1693 -2.44882,-1.19905 -4.55877,-1.12448 -2.167296,0.0766 -2.167296,0.0766 -2.235041,6.55889 -0.07573,7.24611 1.52e-4,7.60404 1.851261,8.73268 1.35155,0.82405 45.88142,0.82405 47.23296,0 z m 5.02913,-19.64058 c 0.0706,-6.80687 0.0706,-6.80687 -0.54436,-6.96121 -0.33823,-0.0849 -3.89189,-0.11743 -7.89701,-0.0723 -9.90914,0.11163 -10.01849,0.18965 -10.01679,7.1465 0.002,6.88523 -0.0487,6.85301 10.58235,6.76124 7.8052,-0.0674 7.8052,-0.0674 7.87581,-6.87423 z m -13.65053,1.2997 c -1.13824,-1.2116 -0.37346,-3.0918 1.2576,-3.0918 1.59825,0 2.36347,1.91311 1.22185,3.05473 -0.81515,0.81515 -1.73555,0.82891 -2.47945,0.0371 z m 2.17447,-0.7767 c 0.42559,-0.67893 -0.11569,-1.38906 -1.0588,-1.38906 -0.647,0 -0.77837,0.11794 -0.85225,0.76504 -0.13807,1.20954 1.2582,1.66547 1.91105,0.62402 z m -18.33581,-23.28152 c 1.4781,-0.76299 2.75072,-1.55211 2.82804,-1.75361 0.19455,-0.50699 -1.70498,-4.26747 -2.15562,-4.26747 -0.39274,0 -12.54111,6.18225 -12.94808,6.58922 -0.66298,0.66297 0.26153,0.81911 4.84995,0.81911 4.73825,0 4.73825,0 7.42571,-1.38725 z m 18.23189,1.11968 c 0.57082,-0.37319 -2.83117,-7.00847 -3.59333,-7.00847 -0.52077,0 -11.72631,5.59303 -12.67855,6.32825 -0.45687,0.35275 -0.47494,0.44485 -0.13229,0.67413 0.52741,0.3529 15.86499,0.3586 16.40417,0.006 z"
         style="fill:#7d7d80;stroke-width:0.26458335" />
      <path
         id="path108"
         d="m 101.483,170.08089 c -1.45051,-0.28444 -2.887674,-1.39471 -3.587176,-2.77125 -0.760455,-1.49649 -0.833895,-35.41002 -0.07966,-36.78696 1.172198,-2.13997 3.018006,-3.01196 6.380756,-3.01436 2.06776,-10e-4 2.06776,-10e-4 10.91582,-4.52086 4.86643,-2.48565 8.97818,-4.476 9.13721,-4.42299 0.15904,0.053 0.84286,1.164 1.5196,2.46886 0.74817,1.44258 1.4154,2.40667 1.70235,2.45973 0.25954,0.048 2.71957,-1.05334 5.46672,-2.4474 2.74714,-1.39406 5.11405,-2.53465 5.25979,-2.53465 0.14573,0 1.24046,1.87523 2.43273,4.16719 2.68771,5.16672 2.38881,4.82864 4.26912,4.82864 1.7873,0 3.19847,0.50598 4.28221,1.53539 1.47911,1.40498 1.61228,1.92974 1.75888,6.93128 0.13572,4.63021 0.13572,4.63021 1.32635,4.70877 1.87481,0.1237 1.85208,0.0224 1.85208,8.25581 0,8.23343 0.0227,8.13212 -1.85208,8.25582 -1.19063,0.0786 -1.19063,0.0786 -1.32292,4.57648 -0.18072,6.1445 -1.07763,7.75417 -4.64625,8.33855 -1.96189,0.32127 -43.16567,0.29548 -44.81553,-0.028 z m 45.08374,-1.06321 c 2.53928,-0.70498 3.31605,-2.45206 3.31823,-7.46313 0.002,-4.8085 0.56677,-4.41437 -6.32457,-4.41437 -9.36333,0 -10.60728,-0.96189 -10.60728,-8.20209 0,-3.9038 0.41425,-5.4164 1.83486,-6.69984 1.4934,-1.3492 2.37299,-1.49911 8.80531,-1.50076 6.84897,-0.002 6.29316,0.38374 6.29316,-4.36484 0,-5.3338 -0.9446,-7.26569 -3.74971,-7.66887 -3.17819,-0.4568 -44.78327,-0.0172 -45.60718,0.48183 -1.958301,1.18623 -2.094777,1.70913 -2.192112,8.39891 -0.109885,7.55233 -0.299442,7.12024 3.123652,7.12024 2.55455,0 2.68443,-0.03 5.15171,-1.19062 2.5311,-1.19063 2.5311,-1.19063 5.91847,-1.19063 2.56878,0 3.51148,-0.0939 3.90095,-0.38846 1.13473,-0.85827 2.44211,-0.21461 2.1256,1.04648 -0.19462,0.77542 -1.26999,0.90676 -2.1256,0.25961 -0.38627,-0.29217 -1.31212,-0.38846 -3.73488,-0.38846 -3.2213,0 -3.2213,0 -5.73473,1.19062 -2.46086,1.16572 -2.56914,1.19063 -5.17591,1.19063 -3.017428,0 -3.494011,0.23458 -3.494011,1.71979 0,1.77102 -0.348371,1.71979 11.695481,1.71979 10.50199,0 10.89327,-0.0181 11.74442,-0.54417 1.19306,-0.73735 2.02942,-0.34643 1.9094,0.89248 -0.095,0.98052 -1.41617,1.36068 -2.05475,0.59124 -0.58762,-0.70803 -22.63945,-0.6109 -23.020659,0.10139 -1.037845,1.93923 -0.09459,2.92781 2.793589,2.92781 2.08138,0 2.38143,0.0732 4.34085,1.05833 2.10492,1.05834 2.10492,1.05834 5.51798,1.05834 2.71105,0 3.48081,-0.0816 3.74244,-0.39688 0.72074,-0.86844 1.85208,-0.27352 1.85208,0.97392 0,0.94443 -1.01362,1.27397 -1.97699,0.64275 -0.50226,-0.32909 -1.34061,-0.42604 -3.68416,-0.42604 -3.03394,0 -3.03394,0 -5.48021,-1.19063 -2.29818,-1.11854 -2.57902,-1.19062 -4.63898,-1.19062 -2.846786,0 -2.740491,-0.24621 -2.740491,6.34773 0,7.22748 0.400014,8.44925 3.079021,9.40429 1.33413,0.4756 43.50467,0.56353 45.19502,0.0942 z m 6.07893,-13.35161 c 0.50168,-0.50167 0.62857,-12.45057 0.14189,-13.35995 -0.26083,-0.48737 -0.62906,-0.51178 -7.72168,-0.51178 -10.81647,0 -10.87804,0.0423 -10.74121,7.38777 0.12706,6.82042 0.14363,6.83093 10.84653,6.87239 6.0887,0.0236 7.11584,-0.0298 7.47447,-0.38843 z m -13.48687,-5.52533 c -1.54251,-1.5425 0.41647,-3.89356 2.20211,-2.64285 0.43615,0.30549 0.58804,0.6775 0.58804,1.4402 0,1.74425 -1.57128,2.42153 -2.79015,1.20265 z m 1.99355,-0.53775 c 0.18727,-0.22566 0.25536,-0.67699 0.15965,-1.05833 -0.21552,-0.85867 -1.5729,-0.95038 -2.00888,-0.13573 -0.61948,1.15751 1.00762,2.20814 1.84923,1.19406 z m -18.30068,-23.39534 c 3.52309,-1.76797 3.4819,-1.69394 2.25051,-4.04418 -0.57899,-1.10507 -1.21117,-1.96936 -1.47631,-2.01835 -0.45477,-0.084 -12.15199,5.7739 -12.86292,6.4417 -0.81599,0.7665 -0.0237,0.92002 4.74809,0.92002 4.75169,0 4.75169,0 7.34063,-1.29919 z m 18.46104,0.932 c 0.19282,-0.50246 -2.97397,-6.75711 -3.52903,-6.97011 -0.42531,-0.1632 -12.14363,5.6251 -12.99781,6.42031 -0.88356,0.82256 -0.0401,0.91699 8.19116,0.91699 6.74578,0 8.21969,-0.0649 8.33568,-0.36719 z"
         style="fill:#757679;stroke-width:0.26458335" />
      <path
         id="path106"
         d="m 100.969,169.9162 c -0.94772,-0.1835 -3.084807,-2.44928 -3.293268,-3.49159 -0.09723,-0.48615 -0.176783,-8.51097 -0.176783,-17.83293 0,-16.73093 0.0072,-16.96393 0.561221,-18.10834 0.933922,-1.92923 2.13487,-2.52329 5.50249,-2.72184 2.83251,-0.167 2.83251,-0.167 11.71469,-4.70726 6.77447,-3.46287 8.94516,-4.46213 9.14756,-4.21102 0.14596,0.18109 0.75927,1.31678 1.36292,2.52375 0.60364,1.20698 1.28431,2.26618 1.51259,2.35378 0.24629,0.0945 2.54194,-0.93321 5.64552,-2.52739 4.03327,-2.07173 5.29202,-2.61048 5.49943,-2.35378 0.14794,0.18309 1.17714,2.14266 2.28711,4.35461 2.32986,4.64294 2.02554,4.34596 4.69351,4.58053 4.35917,0.38327 5.25421,1.79255 5.25421,8.27302 0,4.97246 -0.008,4.95285 2.09927,4.95285 1.07573,0 1.07573,0 1.07573,7.9375 0,7.9375 0,7.9375 -1.17173,7.9375 -1.92793,0 -2.00262,0.19019 -2.00762,5.11213 -0.005,4.85188 -0.22701,5.57426 -2.20292,7.16585 -1.01664,0.8189 -1.01664,0.8189 -23.94479,0.85185 -12.61048,0.0181 -23.21209,-0.022 -23.55914,-0.0892 z m 47.18027,-1.49996 c 1.54138,-1.17578 1.73718,-1.93282 1.73718,-6.71673 0,-2.90527 -0.0973,-4.28621 -0.3175,-4.50642 -0.22828,-0.22827 -2.00365,-0.3175 -6.31769,-0.3175 -6.77485,0 -7.22197,-0.0927 -8.78368,-1.82133 -1.20289,-1.33145 -1.30918,-1.93315 -1.20359,-6.8132 0.14702,-6.79452 0.75841,-7.24047 9.92672,-7.24047 4.97384,0 6.15994,-0.0701 6.4164,-0.37909 0.59812,-0.72069 0.26297,-9.21858 -0.39847,-10.10332 -1.48186,-1.98215 0.74535,-1.82071 -25.11907,-1.82071 -22.93047,0 -23.11798,0.004 -23.84289,0.54551 -1.832077,1.36785 -1.821689,1.31842 -1.821689,8.66769 0,6.6618 0,6.6618 3.063379,6.73595 3.06337,0.0741 3.06337,0.0741 5.29166,-1.05591 2.22829,-1.13005 2.22829,-1.13005 5.7758,-1.2199 2.58771,-0.0655 3.71167,-0.19741 4.15424,-0.48739 1.10009,-0.72081 2.2702,0.15153 1.6807,1.25301 -0.32529,0.60782 -1.01769,0.6566 -1.72511,0.12154 -0.39055,-0.2954 -1.35993,-0.39048 -4.04647,-0.39688 -3.53289,-0.008 -3.53289,-0.008 -5.82084,1.10668 -2.18429,1.06457 -2.42579,1.12151 -5.33065,1.25677 -3.042709,0.14168 -3.042709,0.14168 -3.042709,1.72918 0,1.5875 0,1.5875 11.485399,1.65649 10.2148,0.0614 11.5371,0.0222 11.95271,-0.35392 0.89423,-0.80927 2.29332,0.15122 1.66759,1.14482 -0.41465,0.65844 -1.11278,0.72092 -1.73728,0.15549 -0.49969,-0.45244 -1.2859,-0.49139 -11.31803,-0.56078 -12.673497,-0.0876 -12.241864,-0.15851 -12.129784,1.99128 0.0794,1.52287 0.0794,1.52287 2.725224,1.67693 2.42546,0.14124 2.82834,0.24592 4.83706,1.25677 2.19122,1.10271 2.19122,1.10271 5.30724,1.10271 2.3302,0 3.24554,-0.098 3.62961,-0.38846 0.68077,-0.51491 1.60814,-0.50813 1.8082,0.0132 0.51664,1.34632 -0.47797,2.00073 -1.7995,1.18399 -0.75568,-0.46704 -1.31416,-0.54418 -3.94003,-0.54418 -3.05954,0 -3.05954,0 -5.50582,-1.19062 -2.24575,-1.09303 -2.61158,-1.19063 -4.46307,-1.19063 -2.799072,0 -2.651811,-0.37807 -2.651811,6.80829 0,6.46033 0.130756,7.35151 1.220844,8.32079 1.502057,1.33559 0.392164,1.28159 24.861297,1.2097 22.77485,-0.0669 22.77485,-0.0669 23.77443,-0.82938 z m 4.77989,-19.47815 c 0,-7.01145 0,-7.01145 -7.95886,-7.08141 -10.6673,-0.0938 -10.76465,-0.0371 -10.91351,6.35208 -0.10309,4.42498 0.0139,5.20721 0.94426,6.31287 1.26772,1.5066 1.55851,1.54928 10.1229,1.48578 7.80521,-0.0579 7.80521,-0.0579 7.80521,-7.06932 z m -13.71733,1.10365 c -0.95581,-1.05616 -0.357,-2.69115 0.98563,-2.69115 1.51945,0 2.21321,1.33973 1.33961,2.58697 -0.50853,0.72602 -1.71361,0.78002 -2.32524,0.10418 z m 1.94337,-0.3099 c 0.67064,-0.67064 0.66858,-1.11473 -0.008,-1.72704 -0.78547,-0.71084 -1.94394,-0.2661 -2.06521,0.79282 -0.15195,1.327 1.11124,1.89621 2.07322,0.93422 z m -18.04638,-23.49273 c 1.49787,-0.76692 2.79637,-1.58454 2.88555,-1.81694 0.1968,-0.51285 -1.61834,-4.28111 -2.16282,-4.49004 -0.32989,-0.1266 -12.36461,5.8265 -13.30187,6.57991 -1.26503,1.01687 -0.32016,1.22846 5.22552,1.17015 4.63021,-0.0487 4.63021,-0.0487 7.35362,-1.44308 z m 18.32456,1.09575 c 0.34018,-0.34059 -2.7912,-6.87916 -3.51234,-7.33405 -0.39054,-0.24634 -12.50273,5.72789 -13.43459,6.6265 -0.35186,0.3393 -0.33696,0.4271 0.13135,0.77412 0.68048,0.50422 16.30726,0.44236 16.81558,-0.0666 z"
         style="fill:#6c6d70;stroke-width:0.26458335" />
      <path
         id="path104"
         d="m 140.69218,156.67801 c 1.70987,-0.0461 4.50784,-0.0461 6.21771,0 1.70987,0.0461 0.31088,0.0838 -3.10886,0.0838 -3.41974,0 -4.81872,-0.0377 -3.10885,-0.0838 z m 11.30862,0.001 c 1.329,-0.16027 1.31636,-0.089 1.32523,-7.47665 0.005,-4.45523 0.0952,-6.61208 0.26459,-6.35 0.28467,0.4405 0.35828,10.42636 0.0931,12.63385 -0.16684,1.38906 -0.16684,1.38906 -1.38676,1.34672 -1.07355,-0.0373 -1.10909,-0.0557 -0.29619,-0.15382 z m -1.67555,-16.67092 c -0.0669,-0.10914 -0.13846,-1.74625 -0.15906,-3.63802 -0.0206,-1.89178 -0.13897,-3.88607 -0.26303,-4.43178 -0.21001,-0.92372 0.005,-1.33427 0.38085,-0.72649 0.15001,0.24272 0.36919,8.99472 0.22526,8.99472 -0.0343,0 -0.11714,-0.0893 -0.18402,-0.19843 z m -47.66693,-11.9724 c -0.78662,-0.14084 -0.37906,-0.19958 1.5875,-0.22878 2.15326,-0.032 2.79361,-0.13716 3.43959,-0.56497 0.87579,-0.58001 1.19062,-0.65484 1.19062,-0.28299 0,0.1354 -0.25856,0.28423 -0.57459,0.33073 -0.31602,0.0465 -0.61741,0.21483 -0.66976,0.37405 -0.0679,0.20666 1.78838,0.25325 6.48754,0.16281 4.53955,-0.0874 6.7389,-0.036 7.08591,0.16548 0.57635,0.33464 -16.69457,0.37531 -18.54681,0.0437 z m 20.90209,0 c 0.29104,-0.12506 4.33916,-0.22739 8.99583,-0.22739 4.65667,0 8.70479,0.10233 8.99583,0.22739 0.30808,0.13239 -3.45036,0.22739 -8.99583,0.22739 -5.54547,0 -9.30391,-0.095 -8.99583,-0.22739 z"
         style="fill:#6b6c6e;stroke-width:0.26458335" />
    </g>
  </g>
</svg>
