<?xml version="1.0" encoding="UTF-8" standalone="no"?>
<svg
   xmlns:dc="http://purl.org/dc/elements/1.1/"
   xmlns:cc="http://creativecommons.org/ns#"
   xmlns:rdf="http://www.w3.org/1999/02/22-rdf-syntax-ns#"
   xmlns:svg="http://www.w3.org/2000/svg"
   xmlns="http://www.w3.org/2000/svg"
   id="svg8"
   version="1.1"
   viewBox="0 0 31.669514 33.408138"
   height="33.408138mm"
   width="31.669514mm">
  <defs
     id="defs2" />
  <metadata
     id="metadata5">
    <rdf:RDF>
      <cc:Work
         rdf:about="">
        <dc:format>image/svg+xml</dc:format>
        <dc:type
           rdf:resource="http://purl.org/dc/dcmitype/StillImage" />
        <dc:title></dc:title>
      </cc:Work>
    </rdf:RDF>
  </metadata>
  <g
     transform="translate(-126.23839,-116.28128)"
     id="layer1">
    <path
       id="path72"
       d="m 127.82508,149.07223 c -1.02877,-0.62723 -1.74574,-2.14195 -1.55627,-3.28792 0.0733,-0.44349 1.50405,-3.1108 3.17939,-5.92737 l 3.04606,-5.12102 -0.39845,-1.09668 c -0.21915,-0.60318 -0.46235,-2.04919 -0.54046,-3.21335 -0.80092,-11.93807 13.342,-18.71946 22.08856,-10.59126 5.34518,4.96729 5.71327,13.16142 0.83119,18.50319 -1.78714,1.95542 -3.50872,3.02051 -6.41329,3.96775 -0.4441,0.14482 -0.41756,0.27155 0.33073,1.57943 1.26163,2.20511 0.95025,4.10526 -0.85293,5.20472 -1.32844,0.81 -18.3821,0.79487 -19.71453,-0.0175 z m 18.7805,-2.0186 c 0.26612,-0.24084 0.48386,-0.606 0.48386,-0.81147 0,-0.20547 -1.92227,-3.58656 -4.2717,-7.51352 -4.22045,-7.05429 -4.28155,-7.13897 -5.09323,-7.05989 -0.77009,0.075 -1.08188,0.51077 -4.97967,6.95922 -4.04198,6.68701 -4.56327,7.84151 -3.85874,8.54604 0.55508,0.55508 17.09729,0.44269 17.71948,-0.12038 z m -9.68544,-1.65983 c -0.59657,-0.65919 -0.32741,-1.55171 0.53308,-1.76768 0.78761,-0.19768 1.43413,0.28322 1.43413,1.06674 0,1.18735 -1.15468,1.59878 -1.96721,0.70094 z m 0.15932,-3.273 c -0.4567,-0.55029 -0.72042,-5.90725 -0.31487,-6.3959 0.45987,-0.55411 1.4181,-0.50752 1.9638,0.0955 0.4098,0.45283 0.4234,0.76918 0.14501,3.37344 -0.16896,1.58056 -0.36103,2.96304 -0.42682,3.07218 -0.1928,0.31983 -1.05739,0.22801 -1.36712,-0.14519 z m 12.71487,-2.88678 c 4.07483,-2.16492 6.49181,-6.91573 5.77688,-11.35503 -1.43301,-8.89818 -12.26662,-12.56077 -18.55452,-6.27286 -2.5869,2.58689 -4.01263,7.04752 -3.19076,9.98285 0.17092,0.61048 0.20486,0.59258 0.9172,-0.48385 1.27366,-1.92463 3.66014,-2.39926 5.13086,-1.02045 0.3554,0.33318 1.60461,2.21313 2.77603,4.17766 3.91662,6.56835 3.59108,6.15425 4.67934,5.95247 0.52288,-0.097 1.63212,-0.5383 2.46497,-0.98079 z m -5.82698,-8.99334 c -0.33405,-0.33406 -0.46695,-6.65809 -0.1569,-7.46607 0.18928,-0.49325 1.18496,-0.55463 1.63857,-0.10102 0.20584,0.20585 0.3175,1.27588 0.3175,3.04271 v 2.72521 h 2.23965 c 1.96886,0 2.27389,0.064 2.52285,0.52917 0.20121,0.37597 0.20121,0.68236 0,1.05833 -0.25747,0.48109 -0.55399,0.52917 -3.26368,0.52917 -1.96538,0 -3.08862,-0.10814 -3.29799,-0.3175 z"
       style="fill:#000000;stroke-width:0.26458335" />
  </g>
</svg>
