<svg id="Group_10026" data-name="Group 10026" xmlns="http://www.w3.org/2000/svg" xmlns:xlink="http://www.w3.org/1999/xlink" width="50.974" height="66.745" viewBox="0 0 50.974 66.745">
  <defs>
    <clipPath id="clip-path">
      <rect id="Rectangle_6126" data-name="Rectangle 6126" width="50.974" height="66.745"/>
    </clipPath>
  </defs>
  <g id="Group_10028" data-name="Group 10028" clip-path="url(#clip-path)">
    <path id="Path_7204" data-name="Path 7204" d="M46.015,56.352H21.656a4.633,4.633,0,0,1-4.628-4.629V4.629A4.634,4.634,0,0,1,21.656,0H46.015a4.634,4.634,0,0,1,4.629,4.629V21.518H48.695V4.629a2.683,2.683,0,0,0-2.68-2.68H21.656a2.683,2.683,0,0,0-2.679,2.68V51.723a2.682,2.682,0,0,0,2.679,2.68H46.015a2.683,2.683,0,0,0,2.68-2.68V42.117h1.949v9.607a4.634,4.634,0,0,1-4.629,4.629" transform="translate(-5.966 0)"/>
    <path id="Path_7205" data-name="Path 7205" d="M3.1,58.15a.975.975,0,0,1-.956-.79L.291,47.752a15.766,15.766,0,0,1,1.151-9.609l3.131-6.837A10.579,10.579,0,0,0,5.54,26.87V23.234a3.735,3.735,0,1,1,7.471,0v6.171a.974.974,0,0,1-1.949,0V23.234a1.786,1.786,0,1,0-3.573,0V26.87a12.511,12.511,0,0,1-1.145,5.248L3.215,38.954A13.833,13.833,0,0,0,2.2,47.382L4.061,56.99a.974.974,0,0,1-.772,1.141.953.953,0,0,1-.186.018" transform="translate(0 -6.832)"/>
    <path id="Path_7206" data-name="Path 7206" d="M33.5,96.088a.974.974,0,0,1-.84-1.467c1.638-2.8,4-3.821,6.51-4.907A18.92,18.92,0,0,0,47.2,84.1a.975.975,0,0,1,1.507,1.236A20.579,20.579,0,0,1,39.945,91.5c-2.4,1.037-4.287,1.857-5.6,4.1a.973.973,0,0,1-.841.482" transform="translate(-11.397 -29.343)"/>
    <path id="Path_7207" data-name="Path 7207" d="M67.379,21.443c-.143,0-.285-.007-.428-.021l.2-1.939a2.329,2.329,0,0,0,1.247-.219L71.032,18a2.355,2.355,0,0,0-.232-4.345,2.331,2.331,0,0,0-1.8.1l-1.531.732-.84-1.759L68.16,12a4.3,4.3,0,1,1,3.713,7.765l-2.639,1.261a4.3,4.3,0,0,1-1.855.422" transform="translate(-23.346 -4.056)"/>
    <path id="Path_7208" data-name="Path 7208" d="M65.463,40.039A4.3,4.3,0,0,1,63.6,31.851l2.637-1.26a4.3,4.3,0,0,1,3.713,7.765l-2.639,1.262a4.284,4.284,0,0,1-1.853.422m-2.127-3.29a2.355,2.355,0,0,0,3.139,1.109L69.114,36.6a2.355,2.355,0,0,0-.233-4.345,2.333,2.333,0,0,0-1.8.1L64.445,33.61a2.353,2.353,0,0,0-1.109,3.14" transform="translate(-21.428 -10.57)"/>
    <path id="Path_7209" data-name="Path 7209" d="M63.649,51.452a4.313,4.313,0,0,1-4.193-3.335h0a4.31,4.31,0,0,1,3.225-5.162l2.242-.518a4.3,4.3,0,1,1,1.938,8.386l-2.243.518a4.322,4.322,0,0,1-.969.111m-2.294-3.774a2.36,2.36,0,0,0,2.825,1.764l2.242-.518a2.355,2.355,0,0,0-1.06-4.589l-2.242.518a2.358,2.358,0,0,0-1.764,2.825" transform="translate(-20.793 -14.829)"/>
    <path id="Path_7210" data-name="Path 7210" d="M65.623,62.032h-.731a4.3,4.3,0,0,1,0-8.607h.731a4.3,4.3,0,0,1,0,8.607m-.731-6.659a2.355,2.355,0,1,0,0,4.71h.731a2.355,2.355,0,1,0,0-4.71Z" transform="translate(-21.229 -18.719)"/>
    <rect id="Rectangle_6124" data-name="Rectangle 6124" width="31.667" height="1.949" transform="translate(12.036 6.423)"/>
    <path id="Path_7211" data-name="Path 7211" d="M44.243,7.261h-5.46a.974.974,0,1,1,0-1.949h5.46a.974.974,0,0,1,0,1.949" transform="translate(-13.248 -1.861)"/>
    <path id="Path_7212" data-name="Path 7212" d="M24.554,31.821H22.605V26.827H27.6v1.949H24.554Z" transform="translate(-7.92 -9.4)"/>
    <path id="Path_7213" data-name="Path 7213" d="M60.5,31.821H58.555V28.776H55.51V26.827H60.5Z" transform="translate(-19.45 -9.4)"/>
    <path id="Path_7214" data-name="Path 7214" d="M60.5,64.475H55.51V62.526h3.045V59.481H60.5Z" transform="translate(-19.45 -20.841)"/>
    <path id="Path_7215" data-name="Path 7215" d="M27.6,64.475H22.606V59.481h1.949v3.045H27.6Z" transform="translate(-7.921 -20.841)"/>
    <path id="Path_7216" data-name="Path 7216" d="M34.573,39.935H28.4V33.764h6.171Zm-4.223-1.949h2.274V35.713H30.351Z" transform="translate(-9.952 -11.83)"/>
    <path id="Path_7217" data-name="Path 7217" d="M34.573,57.059H28.4V50.888h6.171Zm-4.223-1.949h2.274V52.837H30.351Z" transform="translate(-9.952 -17.83)"/>
    <path id="Path_7218" data-name="Path 7218" d="M54.072,39.935H47.9V33.764h6.171ZM49.85,37.987h2.274V35.713H49.85Z" transform="translate(-16.784 -11.83)"/>
    <rect id="Rectangle_6125" data-name="Rectangle 6125" width="6.171" height="1.949" transform="translate(18.45 29.526)"/>
    <path id="Path_7219" data-name="Path 7219" d="M43.945,42.473H42V38.056H39.652V33.764H41.6v2.344h2.344Z" transform="translate(-13.893 -11.83)"/>
    <path id="Path_7220" data-name="Path 7220" d="M43.69,55.828H39.833V53.879h1.908V51.457H39.589V46.951h1.948v2.558H43.69Z" transform="translate(-13.871 -16.451)"/>
    <path id="Path_7221" data-name="Path 7221" d="M49.85,55.154H47.9v-9.7h6.171V47.4H49.85Z" transform="translate(-16.784 -15.925)"/>
    <path id="Path_7222" data-name="Path 7222" d="M55.595,57.169H53.646V53.149h-1.4V51.2h3.349Z" transform="translate(-18.306 -17.94)"/>
  </g>
</svg>
