<?xml version="1.0" encoding="UTF-8"?><svg id="BC_ID" xmlns="http://www.w3.org/2000/svg" viewBox="0 0 847.65 327.01"><defs><style>.cls-1{fill:#e3a82b;}.cls-1,.cls-2,.cls-3,.cls-4{stroke-width:0px;}.cls-2{fill:none;}.cls-3{fill:#fff;}.cls-4{fill:#65799e;}</style></defs><path class="cls-3" d="m109.59,226.32c44.7,0,106.54,25.17,151.41,25.17,32.02,0,63.26-8.54,81.04-21.13,1.24-7.39,1.9-14.97,1.9-22.72,0-75.13-60.91-136.04-136.04-136.04s-136.04,60.91-136.04,136.04c0,7.65.64,15.15,1.86,22.46,4.9-.91,21.57-3.79,35.87-3.79Z"/><rect class="cls-1" x="415.4" y="252.98" width="314.66" height="3.82"/><path class="cls-3" d="m423.47,116.64c0-6.39-.45-8.08-4.76-8.43l-3-.21c-.49-.39-.35-2.12.1-2.16,5.17-.46,11.69-.69,20.6-.69,6.04,0,11.79.43,16.1,2.42,4.12,1.81,7.28,5.26,7.28,10.79,0,6.22-4.03,9.41-9.77,11.83,0,.86.77,1.12,1.82,1.29,5.17.86,12.84,5.18,12.84,14.42,0,10.01-8.24,16.75-25.49,16.75-2.78,0-7.47-.26-11.5-.26s-7.47.17-11.02.26c-.57-.26-.77-1.64-.19-2.16l1.73-.26c5.08-.78,5.27-1.73,5.27-10.79v-32.8Zm7.86,11.48c0,2.42.1,2.59,4.98,2.42,9.77-.35,15.04-2.94,15.04-11.05s-7-11.65-14.28-11.65c-2.11,0-3.55.17-4.41.52-.96.26-1.34.69-1.34,2.24v17.52Zm0,20.03c0,3.11.19,7.51,2.01,9.41,1.82,1.98,4.7,2.42,7.57,2.42,8.53,0,15.04-3.45,15.04-12.08,0-6.82-3.83-14.76-19.07-14.76-5.17,0-5.56.52-5.56,2.24v12.77Z"/><path class="cls-3" d="m531.26,125.14c0-7.82-.16-9.07-4.99-9.44l-2.05-.15c-.49-.29-.33-1.62.16-1.84,4.09.15,6.87.22,10.31.22s6.06-.07,10.15-.22c.49.22.65,1.55.16,1.84l-2.04.15c-4.83.37-4.99,1.62-4.99,9.44v26.25c0,7.82.16,8.85,4.99,9.36l2.04.22c.49.29.33,1.62-.16,1.84-4.09-.15-6.87-.22-10.15-.22-3.44,0-6.22.07-10.31.22-.49-.22-.66-1.4-.16-1.84l2.05-.22c4.83-.52,4.99-1.55,4.99-9.36v-26.25Z"/><path class="cls-3" d="m576.66,151.53c0,7.74.15,8.85,4.6,9.22l2.45.22c.46.29.31,1.62-.15,1.84-4.37-.15-6.98-.22-10.05-.22s-5.75.07-10.66.22c-.46-.22-.62-1.47,0-1.84l2.76-.22c4.37-.37,4.75-1.48,4.75-9.22v-32.96c0-2.28,0-2.36-2.3-2.36h-4.22c-3.3,0-7.51.15-9.43,1.84-1.84,1.62-2.61,3.24-3.45,5.09-.62.44-1.69.07-1.99-.52,1.22-3.32,2.38-8.04,2.91-10.98.23-.15,1.23-.22,1.46,0,.46,2.36,2.99,2.29,6.52,2.29h31.05c4.14,0,4.83-.15,5.98-2.06.38-.15,1.23-.07,1.38.22-.84,3.02-1.38,9-1.15,11.21-.31.59-1.61.59-1.99.15-.23-1.84-.77-4.57-1.92-5.38-1.76-1.25-4.68-1.84-8.89-1.84h-5.44c-2.3,0-2.22.07-2.22,2.51v32.81Z"/><path class="cls-3" d="m609.53,125.14c0-7.82-.16-9.07-4.99-9.44l-2.05-.15c-.49-.29-.33-1.62.16-1.84,4.09.15,6.87.22,10.31.22s6.05-.07,10.15-.22c.49.22.66,1.55.17,1.84l-2.05.15c-4.83.37-4.99,1.62-4.99,9.44v26.25c0,7.82.16,8.85,4.99,9.36l2.05.22c.49.29.33,1.62-.17,1.84-4.09-.15-6.87-.22-10.15-.22-3.44,0-6.22.07-10.31.22-.49-.22-.65-1.4-.16-1.84l2.05-.22c4.83-.52,4.99-1.55,4.99-9.36v-26.25Z"/><path class="cls-3" d="m646.2,163.57c-7.31,0-11.92-1.92-13.57-2.73-1.04-1.62-2.18-6.86-2.35-10.32.44-.52,1.74-.66,2.09-.22,1.31,3.76,4.87,10.98,14.96,10.98,7.31,0,10.87-4.05,10.87-8.48,0-3.24-.78-6.86-7.13-10.32l-8.26-4.57c-4.35-2.43-9.4-6.64-9.4-12.68,0-7,6.44-12.68,17.75-12.68,2.7,0,5.83.44,8.09.96,1.13.29,2.35.44,3.04.44.78,1.77,1.57,5.9,1.57,9-.35.44-1.74.66-2.18.22-1.13-3.54-3.48-8.33-11.83-8.33s-10.35,4.79-10.35,8.18c0,4.28,4.18,7.38,7.39,9.07l6.96,3.69c5.48,2.88,10.88,7.15,10.88,14.16,0,8.11-7.22,13.64-18.53,13.64Z"/><path class="cls-3" d="m689.99,138.78c-3.81,0-3.96.15-3.96,2.36v10.4c0,7.74.4,8.77,4.84,9.22l2.3.22c.48.29.32,1.62-.16,1.84-4.28-.15-6.98-.22-10.08-.22-3.41,0-6.11.15-9.2.22-.47-.22-.63-1.4-.16-1.84l1.35-.22c4.45-.74,4.6-1.48,4.6-9.22v-26.54c0-7.74-.55-8.99-4.68-9.29l-2.06-.15c-.48-.29-.32-1.62.16-1.84,3.89.07,6.58.22,10,.22,3.1,0,5.79-.07,9.2-.22.48.22.63,1.55.16,1.84l-1.51.15c-4.6.44-4.76,1.55-4.76,9.29v8.48c0,2.28.16,2.36,3.96,2.36h22.69c3.81,0,3.97-.07,3.97-2.36v-8.48c0-7.74-.16-8.85-4.84-9.29l-1.51-.15c-.48-.29-.32-1.62.16-1.84,3.65.15,6.35.22,9.6.22s5.79-.07,9.36-.22c.48.22.63,1.55.16,1.84l-1.66.15c-4.6.44-4.76,1.55-4.76,9.29v26.54c0,7.74.16,8.7,4.76,9.22l1.9.22c.47.29.32,1.62-.16,1.84-3.81-.15-6.51-.22-9.6-.22-3.25,0-6.11.07-9.6.22-.48-.22-.63-1.4-.16-1.84l1.51-.22c4.84-.74,4.84-1.48,4.84-9.22v-10.4c0-2.21-.16-2.36-3.97-2.36h-22.69Z"/><path class="cls-3" d="m378.06,179.01c6.52-5.07,14.83-7.57,24.12-7.57,4.82,0,11.61.98,15.81,2.14,1.07.27,1.7.45,2.5.36.09,2.05.54,7.65,1.25,13.09-.45.62-1.79.71-2.41.18-1.34-6.05-5.36-13-18.31-13-13.67,0-25.28,8.64-25.28,27.06s11.88,29.02,26.53,29.02c11.52,0,16.62-7.48,18.67-12.73.63-.44,1.97-.27,2.32.36-.62,4.63-2.95,10.5-4.29,12.2-1.07.18-2.14.53-3.13.89-1.97.71-8.4,2.05-14.11,2.05-8.04,0-15.72-1.6-22.24-5.96-7.15-4.9-12.69-12.99-12.69-24.48,0-9.88,4.47-18.34,11.26-23.59Z"/><path class="cls-3" d="m426.92,207.81c0-14.75,11.61-26.03,27.56-26.03,17.88,0,26.86,12.31,26.86,25.29,0,14.89-11.92,25.73-26.86,25.73-17.19,0-27.56-11.72-27.56-25Zm46.68,1.55c0-12.17-5.65-25.29-20.44-25.29-8.05,0-18.5,5.24-18.5,21.38,0,10.91,5.57,25.07,20.82,25.07,9.29,0,18.12-6.64,18.12-21.16Z"/><path class="cls-3" d="m568.68,201.47c0-4.57-.16-13.05-1.49-15.26-.55-.89-1.95-1.4-3.91-1.55l-1.95-.15c-.47-.52-.31-1.47.15-1.77,2.97.15,5.86.22,8.91.22,3.28,0,5.39-.08,8.21-.22.62.37.55,1.33.16,1.77l-1.88.15c-1.95.15-3.44.81-3.91,1.77-1.09,2.43-1.09,10.91-1.09,15.04v8.33c0,6.42-1.1,13.2-5.47,17.62-3.36,3.47-9.14,5.38-14.93,5.38-5.39,0-10.79-.96-14.62-4.05-4.14-3.24-6.1-8.63-6.1-17.4v-17.4c0-7.67-.16-8.92-4.69-9.29l-1.96-.15c-.47-.29-.31-1.55.15-1.77,3.91.15,6.57.22,9.69.22s5.78-.08,9.61-.22c.47.22.63,1.47.16,1.77l-1.88.15c-4.53.37-4.69,1.62-4.69,9.29v15.93c0,11.87,3.91,19.69,15.87,19.69,11.33,0,15.63-8.41,15.63-19.61v-8.48Z"/><path class="cls-3" d="m659.52,192.26c0-5.51-.35-6.93-4.23-7.22l-2.77-.27c-.31-.28-.48-1.78.09-1.82,4.67-.35,10.54-.59,18.57-.59,5.44,0,10.62.37,14.51,2.08,3.71,1.57,6.56,4.54,6.56,9.31,0,5.36-3.63,8.12-8.81,10.2,0,.75.69.97,1.64,1.12,4.67.74,11.58,4.47,11.58,12.44,0,8.64-7.43,14.45-22.98,14.45-2.5,0-6.74-.22-10.37-.22s-6.74.15-9.93.22c-.52-.22-.69-1.41-.17-1.86l1.55-.22c4.58-.67,4.75-1.49,4.75-9.31v-28.3Zm7.08,9.9c0,2.09.09,2.24,4.49,2.09,8.81-.3,13.56-2.53,13.56-9.53s-6.3-10.05-12.87-10.05c-1.9,0-3.2.15-3.97.45-.87.22-1.21.59-1.21,1.94v15.12Zm0,17.28c0,2.68.17,6.48,1.81,8.12,1.64,1.71,4.23,2.08,6.82,2.08,7.69,0,13.56-2.98,13.56-10.43,0-5.88-3.45-12.73-17.19-12.73-4.67,0-5.01.44-5.01,1.94v11.02Z"/><path class="cls-3" d="m518.75,160.97l-2.05-.18c-.41-.04-.78-.1-1.13-.15-2.99-.53-4.19-3.2-5.6-5.67l-7.08-12.32c-1.22-2.05-2.53-4.82-5.33-5.21,7.25-.87,13.81-5.06,13.81-12.24,0-8.3-8.21-12.01-16.52-12.01-4.98,0-9.52.13-14.59.13-2.79,0-6.12-.13-8.92-.13-1.55,0-1.57.32-1.57,1.18,0,1.28.54.92,2.19,1.02,5.9.33,5.68,1.43,5.68,6.49v32.31c0,4.62.4,6-4.46,6.44,0,0-.74.08-1.17.12l-2.06.21c-.49.44-.33,1.62.16,1.84,1.09-.04,3.03-.12,3.03-.12,2.69-.08,5.38-.28,8.06-.28s5.29.21,7.95.29h0c.94.03,1.94.07,3.03.1.49-.22.66-1.4.16-1.84l-2.07-.2c-.42-.05-1.15-.11-1.15-.11-4.9-.33-4.6-1.71-4.6-6.46v-12.17c0-.71-.09-2.61.44-3.16.44-.48,1.22-.4,1.92-.4,6.64,0,6.55.63,9.7,6.16l8.56,15.4c.7,1.19,1.22,2.69,2.97,2.69h7.44c.94.03,1.92.06,3.01.1.49-.22.65-1.4.16-1.84Zm-29.83-24.23c-1.49,0-4.46.55-4.46-1.42v-14.14c0-5.53.18-6.32,6.82-6.32,7.78,0,12.58,3.95,12.58,11.22,0,3.16-1.14,6.08-4.02,8.06-3.32,2.29-6.9,2.61-10.92,2.61Z"/><path class="cls-3" d="m490.53,194.2c0-7.74-.16-8.92-5.27-9.29l-2.03-.15c-.49-.3-.32-1.62.16-1.84,4.54.15,7.3.22,10.54.22s5.92-.07,9.98-.22c.49.22.65,1.55.16,1.84l-1.95.15c-4.78.37-4.95,1.55-4.95,9.29v25.66c0,4.64.24,6.56,1.7,7.96.89.81,2.43,1.7,8.84,1.7,6.89,0,8.6-.3,9.9-.96,1.62-.89,3.73-3.54,5.35-7.3.49-.37,2.03-.07,2.03.44,0,.81-2.27,8.33-3.41,10.32-4.13-.15-11.84-.22-20.2-.22h-7.46c-3.41,0-6,.07-10.54.22-.49-.22-.65-1.4-.16-1.84l2.43-.22c4.7-.44,4.87-1.48,4.87-9.22v-26.54Z"/><path class="cls-3" d="m707.79,194.34c0-7.81-.16-9.07-4.86-9.44l-1.99-.15c-.48-.3-.32-1.62.16-1.84,3.98.15,6.69.22,10.03.22s5.89-.07,9.87-.22c.48.22.64,1.55.16,1.84l-1.99.15c-4.7.37-4.86,1.62-4.86,9.44v26.25c0,7.82.16,8.85,4.86,9.36l1.99.22c.48.3.32,1.62-.16,1.84-3.98-.15-6.69-.22-9.87-.22-3.35,0-6.05.07-10.03.22-.48-.22-.64-1.4-.16-1.84l1.99-.22c4.7-.52,4.86-1.55,4.86-9.36v-26.25Z"/><path class="cls-3" d="m644.16,229.94c-.41-.04-1.17-.1-1.17-.1-.84-.08-1.59-.2-2.19-.86-1.03-1.1-.95-4.23-.95-5.48v-32.31c0-1.41-.34-4.46.69-5.56.52-.58,1.59-.67,2.55-.73h0c.58-.05.6-.05,1.11-.07l2.05-.15c.49-.3.33-1.62-.16-1.84-1.09.04-2.09.02-3.03.05h0s-8.7,0-8.7,0c-.95,0-1.81,0-2.32,1.02l-17.73,36.92-15.66-35.67c-.52-1.25-.6-2.27-2.24-2.27h-9.05c-.94-.03-1.98-.02-3.08-.06-.49.22-.66,1.55-.16,1.84l2.05.15c.42.03,1.19.09,1.19.09,3.4.22,3.61.98,3.3,4.55l-2.67,34.65c-.23,3.48-.42,5.32-4.07,5.66,0,0-.77.1-1.19.14l-2.04.22c-.49.44-.33,1.62.16,1.84,1.08-.04,3-.1,3-.1,1.85-.09,3.73-.25,5.61-.25,2.03,0,4.06.19,6.1.27h0c.94.03,1.94.07,3.03.1.49-.22.66-1.4.16-1.84l-2.04-.22c-.54-.04-1.14-.1-1.14-.1-5.26-.36-5.14-4.07-4.81-8.62l2.5-32.23h.6l16.95,39.66c.17.55.43,1.49,1.29,1.49.78,0,1.03-.86,1.29-1.41l19.1-40.68h.6v35.44c0,1.41.17,4.3-1.29,5.4-.76.57-3.25.91-3.25.91-.34.05-.7.1-1.11.15l-2.04.22c-.49.44-.33,1.62.16,1.84,1.08-.04,2.99-.1,2.99-.1,2.77-.08,5.59-.28,8.41-.28,2.03,0,6,.19,6,.19.95.03,2.02.13,3.12.17.49-.22.66-1.4.16-1.84l-2.05-.22Z"/><path class="cls-3" d="m777.13,230.14l-.28-.22c-.41-.04-.77-.09-1.11-.15-3.19-.71-4.43-4.55-5.61-7.29l-16.41-38.83c-.16-.47-.49-1.47-1.14-1.47-.89,0-1.14,1.08-1.38,1.7l-15.68,38.76c-.57,1.47-2.03,5.03-3.09,6.11-.81.83-1.86.99-2.99,1.1,0,0-.88.08-1.31.13l-1.93.2c-.49.44-.33,1.62.16,1.84,1.09-.04,3.03-.11,3.03-.11,2.14-.03,4.29-.3,6.44-.3,1.81,0,3.61.19,5.41.27,0,0,1.94.07,3.03.11.49-.22.65-1.4.16-1.84l-2.05-.22c-.41-.04-1.11-.11-1.11-.11-1.89-.21-4.24-.55-4.24-2.62,0-1.39.65-3.02,1.14-4.25l2.44-5.8c1.22-2.78.73-3.1,3.98-3.1h11.05c3.9,0,3.33,0,5.04,3.95l2.6,5.88c.41,1.01,1.14,2.71,1.14,3.79,0,1.94-2.12,2.07-4.11,2.24,0,0-.66.06-1.23.1l-1.97.14c-.49.44-.33,1.62.17,1.84,1.09-.04,3.03-.12,3.03-.12,2.31-.08,4.64-.26,6.87-.26,2.85,0,5.69.19,8.54.27h0c.93.03.14.06,1.22.1.49-.22.65-1.4.16-1.84Zm-21.49-18.25h-9.57c-.33,0-3,.31-3-.47,0-.24.17-.7.25-.94l5.75-14.23c.17-.39.75-2.35,1.41-2.35.5,0,1.17,2.03,1.33,2.35l5.66,13.29c0,.16.58,1.41.58,1.72,0,.86-1.91.62-2.41.62Z"/><rect class="cls-2" width="847.65" height="327.01"/><polygon class="cls-1" points="295.89 176.17 301.27 178.4 313.19 170.08 295.89 176.17"/><path class="cls-1" d="m95.46,166.88l-14.14-4.97.71-1.73,15.92,5.31.07-.04,2.1-1.19.84-.53-17.36-7.39.73-1.82,38.75,15.67,1.28-.53-38.44-18.73.86-1.76,40.73,18.96.56-.29-39.49-22.4.81-1.68,57.03,31.03c.47-.86,1.44-2.44,1.95-3.28-21.68-20.39-42.61-35.69-42.61-35.69,0,0,21.52,14.41,48.07,27.81.88-1.09,1.6-1.97,2.53-3.01l-48.65-42.83,1.31-1.34,39.27,33.47-36.38-36.43,1.36-1.41,40.84,39.47-38.02-42.2,1.45-1.31,35.14,37.63-32.07-40.41,1.38-1.26,41.11,50.03c1.06-.92,1.95-1.61,3.06-2.46-12.44-26.91-26.02-48.8-26.02-48.8,0,0,14.46,21.28,33.96,43.56,1.19-.67,2.4-1.31,3.63-1.92l-.21-.13-28.81-57.5,1.71-.75,23.87,45.74-20.08-47.41,1.79-.8,23.08,51.9-19.45-53.37,1.84-.67,18.49,48.05-14.6-49.49,1.75-.65,19.22,61.38-.04.16.05-.02c1.28-.43,2.58-.81,3.89-1.16-1.46-29.48-5.82-54.7-5.82-54.7,0,0,5.4,25,15.08,52.87,1.35-.17,2.71-.31,4.07-.4l-.04-.06h.17l-.1-.14-5.17-64.11,1.87-.06,5,51.35-.86-51.48,1.96-.07,1.96,56.77,1.96-56.77,1.96.07-.86,51.48,5-51.35,1.87.06-5.17,64.11-.1.14h.03v.02s.07,0,.07,0c1.34.08,2.66.22,3.98.38,9.67-27.84,15.06-52.8,15.06-52.8,0,0-4.35,25.14-5.82,54.57,1.32.35,2.63.73,3.91,1.15l19.15-61.16,1.76.65-14.6,49.48,18.49-48.05,1.84.67-19.45,53.37,23.08-51.9,1.79.8-20.08,47.41,23.87-45.74,1.71.75-28.71,57.3.05.02c1.18.58,2.34,1.19,3.49,1.83,19.42-22.21,33.79-43.37,33.79-43.37,0,0-13.49,21.74-25.89,48.52,1.11.84,2.19,1.7,3.24,2.6l40.63-49.49,1.39,1.26-32.08,40.41,35.14-37.63,1.45,1.31-38.02,42.2,40.84-39.47,1.36,1.41-36.38,36.43,39.27-33.47,1.31,1.34-48.06,42.35.03.03c.84.94,1.65,1.9,2.44,2.88,26.39-13.34,47.71-27.62,47.71-27.62,0,0-20.72,15.16-42.29,35.4.59.99,1.55,2.67,2.09,3.69l56.22-30.61.81,1.69-44.88,25.45,46.68-21.72.86,1.76-43.48,21.19.83.29,44.24-17.89.74,1.82-41.12,17.49.77.32,27.4-9.13,4.13-2.88,1.37,1.05,9.02-3.01.71,1.73-7.8,2.75,11.27,8.6,3.61,2.01c-14.49-60.58-68.98-105.62-134-105.62s-121.42,46.63-134.73,108.82c.17-.08.34-.16.51-.24l1.65-.75,1.01-.47,19.01-10.66Z"/><path class="cls-4" d="m72.5,233.02s20.32-4.06,37.29-4.06c44.7,0,106.54,25.17,151.41,25.17,32.91,0,65.02-9.03,82.51-22.19,1.37-7.79,2.08-15.8,2.08-23.98,0-11.08-1.32-21.85-3.79-32.17l-18.7-10.43-21.95,15.39-14.76-5.75c-5,2.53-35.83,23.15-35.83,23.15l-11.84-8.57-12.7-2.51-16.93-12.33-19.42,13.33s-21.67,12.58-22.41,12.58-26.14-20.13-26.14-20.13l-11.7-12.33c-1.99,1.26-9.95,4.91-9.95,4.91l-.41.11-7.7-2.38-9.35-4.96-28.41,12.88c-.17.08-.34.16-.51.24-2,9.34-3.06,19.03-3.06,28.96,0,8.56.79,16.93,2.28,25.06Z"/></svg>