<?xml version="1.0" encoding="UTF-8"?><svg id="Layer_1" xmlns="http://www.w3.org/2000/svg" xmlns:xlink="http://www.w3.org/1999/xlink" viewBox="0 0 328.97 217.41"><defs><style>.cls-1{fill:#999;}.cls-1,.cls-2,.cls-3,.cls-4,.cls-5,.cls-6,.cls-7,.cls-8,.cls-9,.cls-10,.cls-11,.cls-12,.cls-13,.cls-14,.cls-15,.cls-16{stroke-width:0px;}.cls-2{fill:#fcba19;}.cls-3{opacity:.24;}.cls-4{fill:#036;}.cls-17,.cls-11{opacity:.5;}.cls-5{fill:#4ecdc4;}.cls-18{filter:url(#drop-shadow-4);}.cls-6{fill:#e6e6e6;}.cls-19{stroke:#0071bc;stroke-width:.59px;}.cls-19,.cls-20{fill:none;stroke-miterlimit:10;}.cls-21{filter:url(#drop-shadow-3);}.cls-8{fill:#f4f9f9;}.cls-22{filter:url(#drop-shadow-6);}.cls-9{fill:#fff;}.cls-23{filter:url(#drop-shadow-5);}.cls-20{stroke:#036;stroke-width:.29px;}.cls-10{fill:#e2d7cf;}.cls-12{fill:#3d464c;}.cls-13{fill:#8b8b8b;}.cls-14{fill:#bfd7dd;}.cls-15{fill:#21272b;}.cls-16{fill:#2f383f;}</style><filter id="drop-shadow-3" filterUnits="userSpaceOnUse"><feOffset dx="0" dy="0"/><feGaussianBlur result="blur" stdDeviation="1.76"/><feFlood flood-color="#313132" flood-opacity=".16"/><feComposite in2="blur" operator="in"/><feComposite in="SourceGraphic"/></filter><filter id="drop-shadow-4" filterUnits="userSpaceOnUse"><feOffset dx="0" dy="0"/><feGaussianBlur result="blur-2" stdDeviation="1.76"/><feFlood flood-color="#313132" flood-opacity=".16"/><feComposite in2="blur-2" operator="in"/><feComposite in="SourceGraphic"/></filter><filter id="drop-shadow-5" filterUnits="userSpaceOnUse"><feOffset dx="0" dy="0"/><feGaussianBlur result="blur-3" stdDeviation="1.76"/><feFlood flood-color="#313132" flood-opacity=".16"/><feComposite in2="blur-3" operator="in"/><feComposite in="SourceGraphic"/></filter><filter id="drop-shadow-6" filterUnits="userSpaceOnUse"><feOffset dx="0" dy="0"/><feGaussianBlur result="blur-4" stdDeviation=".65"/><feFlood flood-color="#313132" flood-opacity=".24"/><feComposite in2="blur-4" operator="in"/><feComposite in="SourceGraphic"/></filter></defs><ellipse class="cls-14" cx="165.69" cy="126.93" rx="163.5" ry="69.87"/><g class="cls-21"><rect class="cls-8" x="141.73" y="137.01" width="107.02" height="70.77"/><rect class="cls-20" x="144.93" y="140.31" width="100.61" height="64.18"/><rect class="cls-13" x="218" y="143.3" width="24.68" height="1.99" rx="1" ry="1"/><rect class="cls-13" x="221.36" y="147.05" width="21.32" height="1.99" rx="1" ry="1"/><rect class="cls-13" x="216.54" y="151.05" width="26.14" height="1.99" rx="1" ry="1"/><rect class="cls-13" x="147.03" y="193.11" width="26.14" height="1.99" rx="1" ry="1"/><rect class="cls-13" x="147.12" y="143.3" width="26.14" height="1.99" rx="1" ry="1"/><rect class="cls-13" x="147.12" y="146.55" width="21.52" height="1.99" rx="1" ry="1"/><rect class="cls-13" x="147.03" y="196.43" width="29.93" height="1.99" rx="1" ry="1"/><rect class="cls-13" x="147.03" y="200.23" width="22.25" height="1.99" rx="1" ry="1"/><rect class="cls-13" x="213.12" y="196.43" width="29.93" height="1.99" rx="1" ry="1"/><rect class="cls-13" x="220.8" y="200.23" width="22.25" height="1.99" rx="1" ry="1"/><rect class="cls-13" x="188.94" y="165.68" width="11.34" height="1.99" rx="1" ry="1"/><rect class="cls-13" x="188.94" y="178.91" width="11.34" height="1.99" rx="1" ry="1"/><rect class="cls-13" x="177.44" y="171.78" width="36.25" height="1.99" rx="1" ry="1"/></g><path class="cls-16" d="m82.32,53.6l70.27-22.94c3.88-1.27,7.86,1.62,7.86,5.7v17.24h-78.13Z"/><g class="cls-18"><rect class="cls-9" x="141.76" y="91.88" width="109.29" height="63.9" rx="4.26" ry="4.26" transform="translate(406.61 222.45) rotate(172.9)"/><path class="cls-5" d="m140.59,91.96h109.29v41.41c0,1.97-1.6,3.58-3.58,3.58h-102.13c-1.97,0-3.58-1.6-3.58-3.58v-41.41h0Z" transform="translate(403.12 203.89) rotate(172.9)"/><rect class="cls-6" x="213.59" y="93.08" width="28.82" height="34.3" transform="translate(467.88 191.44) rotate(172.9)"/><rect class="cls-1" x="199.56" y="141.11" width="46.9" height="4.46" rx="2.23" ry="2.23" transform="translate(462.03 258.03) rotate(172.9)"/><rect class="cls-1" x="186.06" y="77.98" width="11.68" height="19.39" rx="1.47" ry="1.47" transform="translate(393.17 150.96) rotate(172.9)"/></g><g class="cls-23"><rect class="cls-10" x="120.4" y="26.46" width="122.12" height="80.76" transform="translate(-10.25 92.19) rotate(-27.75)"/><rect class="cls-19" x="127.63" y="33.8" width="107.67" height="66.08" transform="translate(-10.25 92.19) rotate(-27.75)"/><path class="cls-7" d="m223.96,77.21c.87-2.02,1.74-4.04,2.65-6.05.47-.99,1.01-2.01,1.92-2.69.84-.68,2.55-.97,2.94.36.12,1.19-1.21,1.92-2.02,2.57-2.74,1.84-5.63,3.48-8.64,4.83,2.95-1.48,5.82-3.11,8.54-4.98.72-.58,2.01-1.36,1.91-2.37-.34-1.15-1.87-.86-2.62-.27-.88.64-1.43,1.63-1.9,2.61-.92,2-1.84,4-2.79,5.99h0Z"/><path class="cls-7" d="m230.5,69.23c.83-1.9,2.76-3.28,4.85-3.43,0,0-.11.11-.11.11l-3.25,3.31-.1-.1c.9-1.06,5.75-3.93,6.13-1.42-3.74,6.97-13.25,4.31-19.4,7.23-.9.43-1.84.92-2.53,1.66-.21.25-.37.62-.21.93-.17-.32-.02-.69.19-.95.67-.76,1.61-1.27,2.51-1.72,5.99-2.85,14.25-.61,18.79-6.33.44-.52.73-1.16-.03-1.54-.59-.25-1.29,0-1.92.19-1.28.41-2.46,1.12-3.43,2.05l-.1-.1,3.27-3.29.05.1c-1.99.17-3.86,1.46-4.71,3.3h0Z"/><path class="cls-7" d="m148.78,112.61l6.51,2.16-.03.1c-1.69-.36-4.74-.86-6.39-1.27-2.33-1.32,3.48-5.35,4.81-5.72.11-.04.09-.07.12.06.21.72-.2,1.39-.55,1.93l-1.1,1.66-2.19,3.33-.15-.16c2.91-1.58,6.71-3.34,9.63-3.84-.37-.69-1.45.11-1.99.31-.44.18-2.29,1.14-2.72,1.22-.83,0-.53-1.17-.09-1.5.56-.58,1.35-.93,2.15-.96.79-.04,1.61.15,2.32-.19.36-.16.56-.5.76-.85,1.24-1.53,3.37-2.06,5-3.11-1.6,1.07-3.71,1.63-4.92,3.16-.19.33-.4.72-.78.89-.76.36-1.59.17-2.36.22-1.02.04-2.53.75-2.44,1.93.12.45.59.22.89.07,0,0,2.14-1.01,2.14-1.01.63-.24,1.77-1.11,2.22-.2.01.08.04.08-.06.1-3.51.95-6.88,2.38-10.02,4.2,0,0,.26-.38.26-.38l2.21-3.32,1.1-1.66c.35-.53.72-1.16.53-1.77l.12.06c-1.13.48-2.2,1.12-3.14,1.92-.71.67-3.15,2.67-1.69,3.5,1.61.4,4.7.94,6.36,1.3,0,0-.03.1-.03.1l-6.48-2.26h0Z"/><rect class="cls-13" x="147.16" y="52.28" width="55.32" height="2.27" rx="1.14" ry="1.14" transform="translate(-4.76 87.55) rotate(-27.75)"/><rect class="cls-13" x="131.66" y="40.99" width="77.11" height="8.93" rx="4.46" ry="4.46" transform="translate(-1.59 84.49) rotate(-27.75)"/><rect class="cls-13" x="155.19" y="55.92" width="43.09" height="2.27" rx="1.14" ry="1.14" transform="translate(-6.24 88.87) rotate(-27.75)"/><rect class="cls-13" x="172.21" y="59.62" width="12.94" height="2.27" rx="1.14" ry="1.14" transform="translate(-7.74 90.19) rotate(-27.75)"/><rect class="cls-13" x="162.09" y="69.39" width="41.36" height="2.27" rx="1.14" ry="1.14" transform="translate(-11.81 93.23) rotate(-27.75)"/><polygon class="cls-2" points="190.14 75.46 190.18 73.68 191.15 75.17 191.41 73.41 192.19 75.01 192.67 73.3 193.25 74.98 193.94 73.34 194.3 75.08 195.19 73.54 195.33 75.32 196.4 73.9 196.32 75.68 197.56 74.41 197.26 76.16 198.65 75.06 198.13 76.76 199.65 75.84 198.92 77.46 200.54 76.74 199.61 78.25 201.31 77.74 200.2 79.13 201.95 78.83 200.68 80.07 202.45 80 201.03 81.06 202.8 81.21 201.26 82.09 202.99 82.46 201.35 83.14 203.03 83.73 201.31 84.2 202.9 84.99 201.14 85.24 202.62 86.22 200.85 86.25 202.19 87.41 200.42 87.22 201.61 88.54 199.88 88.12 200.9 89.58 199.23 88.95 200.05 90.53 198.48 89.7 199.1 91.36 197.65 90.34 198.05 92.07 196.74 90.87 196.92 92.64 195.77 91.29 195.73 93.07 194.75 91.58 194.49 93.34 193.71 91.74 193.23 93.45 192.66 91.77 191.97 93.41 191.61 91.67 190.72 93.2 190.58 91.43 189.5 92.85 189.59 91.07 188.34 92.34 188.65 90.59 187.25 91.69 187.78 89.99 186.26 90.91 186.99 89.29 185.37 90.01 186.3 88.5 184.59 89.01 185.71 87.62 183.95 87.92 185.23 86.68 183.45 86.75 184.88 85.69 183.11 85.54 184.65 84.66 182.91 84.29 184.55 83.61 182.88 83.02 184.59 82.55 183 81.76 184.76 81.51 183.28 80.53 185.06 80.5 183.72 79.34 185.48 79.53 184.29 78.21 186.02 78.63 185.01 77.17 186.67 77.8 185.85 76.22 187.42 77.05 186.8 75.39 188.26 76.41 187.85 74.68 189.17 75.87 188.98 74.11 190.14 75.46"/></g><g class="cls-22"><rect class="cls-12" x="77.53" y="52.67" width="96.43" height="159.42" rx="8.68" ry="8.68"/><rect class="cls-9" x="82.15" y="65.59" width="86.86" height="133.59"/><rect class="cls-15" x="117.38" y="57.96" width="21.55" height="2.73" rx="1.37" ry="1.37"/><circle class="cls-15" cx="113.92" cy="59.33" r="1.37"/><rect class="cls-12" x="76.38" y="82.49" width="1.15" height="20.58"/><rect class="cls-12" x="76.38" y="104.24" width="1.15" height="20.58"/><rect class="cls-4" x="82.15" y="65.59" width="86.86" height="8.73"/></g><rect class="cls-10" x="87.8" y="82.32" width="77.89" height="34.64" rx="3.78" ry="3.78"/><path class="cls-3" d="m91.58,82.32h4.28v34.64h-4.28c-2.09,0-3.78-1.69-3.78-3.78v-27.09c0-2.09,1.69-3.78,3.78-3.78Z"/><rect class="cls-2" x="92.08" y="91.64" width="10.2" height="10.2" rx="1.45" ry="1.45"/><g class="cls-17"><rect class="cls-11" x="105.97" y="88.6" width="34.92" height="3.32" rx="1.66" ry="1.66"/><rect class="cls-11" x="105.97" y="102.22" width="26.48" height="3.32" rx="1.66" ry="1.66"/><rect class="cls-11" x="106.1" y="107.37" width="19.98" height="3.32" rx="1.66" ry="1.66"/><rect class="cls-11" x="105.97" y="93.75" width="15.8" height="3.32" rx="1.66" ry="1.66"/></g><rect class="cls-5" x="87.8" y="119.65" width="77.89" height="34.64" rx="3.78" ry="3.78"/><path class="cls-3" d="m91.58,119.65h4.28v34.64h-4.28c-2.09,0-3.78-1.69-3.78-3.78v-27.09c0-2.09,1.69-3.78,3.78-3.78Z"/><rect class="cls-6" x="92.08" y="128.97" width="10.2" height="10.2" rx="1.45" ry="1.45"/><rect class="cls-11" x="105.97" y="128.97" width="34.92" height="3.32" rx="1.66" ry="1.66"/><rect class="cls-11" x="105.97" y="134.12" width="15.8" height="3.32" rx="1.66" ry="1.66"/></svg>